<?xml version="1.0" encoding="UTF-8"?>
<svg version="1.1" xmlns="http://www.w3.org/2000/svg" width="2048" height="512">
<path d="M0 0 C675.84 0 1351.68 0 2048 0 C2048 168.96 2048 337.92 2048 512 C1372.16 512 696.32 512 0 512 C0 343.04 0 174.08 0 0 Z " fill="#FBFBFB" transform="translate(0,0)"/>
<path d="M0 0 C14.52 0 29.04 0 44 0 C49.84777968 12.63120412 55.60744668 25.28365047 61.125 38.0625 C61.39104034 38.67865173 61.65708069 39.29480347 61.93118286 39.92962646 C63.34835907 43.21257839 64.76419186 46.49610835 66.1796875 49.77978516 C76.23193305 73.09184402 86.44787997 96.32015109 96.94555664 119.43530273 C102.36634745 131.37304144 107.73885674 143.33111379 113.0625 155.3125 C113.5755217 156.46569229 113.5755217 156.46569229 114.09890747 157.6421814 C115.05799178 159.79869836 116.01564862 161.95584202 116.97265625 164.11328125 C117.2519397 164.74146759 117.53122314 165.36965393 117.81896973 166.01687622 C119.28262096 169.32337677 120.6561354 172.64033849 122 176 C107.15 176 92.3 176 77 176 C75.246875 171.895625 73.49375 167.79125 71.6875 163.5625 C71.14053467 162.28705322 70.59356934 161.01160645 70.0300293 159.69750977 C69.59086182 158.66424561 69.15169434 157.63098145 68.69921875 156.56640625 C68.25408936 155.52427979 67.80895996 154.48215332 67.3503418 153.40844727 C65.73598708 149.3335953 64.38602163 145.1580649 63 141 C36.27 141 9.54 141 -18 141 C-18.99 144.3 -19.98 147.6 -21 151 C-21.95200992 153.70370819 -22.91895596 156.38510704 -23.9375 159.0625 C-24.17662109 159.70509766 -24.41574219 160.34769531 -24.66210938 161.00976562 C-26.58820891 166.11723272 -28.7734878 170.99034755 -31 176 C-45.52 176 -60.04 176 -75 176 C-72.94834739 169.84504216 -70.82205229 164.0258906 -68.19140625 158.13671875 C-67.64728844 156.90464943 -67.64728844 156.90464943 -67.09217834 155.64768982 C-66.31889424 153.89760305 -65.54384453 152.14829551 -64.76715088 150.39971924 C-62.72070201 145.79222831 -60.68714579 141.17904964 -58.65234375 136.56640625 C-58.24870605 135.65227966 -57.84506836 134.73815308 -57.42919922 133.79632568 C-54.10597473 126.26222418 -50.84920901 118.70197354 -47.625 111.125 C-43.82871332 102.21375753 -39.9513677 93.34356759 -36 84.5 C-23.51641231 56.54114165 -11.77586006 28.26206414 0 0 Z " fill="#040303" transform="translate(393,166)"/>
<path d="M0 0 C1.92679459 6.80580235 2.7146149 13.53735734 3.4375 20.5625 C4.35840389 29.04792934 5.49759217 37.30437342 7.31640625 45.64453125 C8.29253317 50.43591996 8.86220373 55.25861662 9.4609375 60.109375 C9.94260069 63.58572671 10.54635677 67.00171544 11.20776367 70.44604492 C12.72719858 78.38106925 13.38093242 85.88755032 13 94 C6.41590045 95.56552789 -0.14454993 97.02588879 -6.8125 98.1875 C-20.1862089 100.80075346 -33.57622131 105.41627924 -46 111 C-19.28044991 107.16514385 -19.28044991 107.16514385 6 99 C8.204364 98.77049681 10.41392173 98.58924067 12.625 98.4375 C14.40777344 98.31181641 14.40777344 98.31181641 16.2265625 98.18359375 C17.14179687 98.12300781 18.05703125 98.06242187 19 98 C18.80664062 97.14921875 18.61328125 96.2984375 18.4140625 95.421875 C16.60727772 87.01406463 15.43499862 78.71726024 14.73486328 70.14355469 C14.32670247 65.38968172 13.60481134 60.87956072 12.50610352 56.23730469 C11.65153132 52.45954319 11.08396169 48.63985411 10.5 44.8125 C10.37326904 43.99168945 10.24653809 43.17087891 10.1159668 42.32519531 C9.86128333 40.66773658 9.60824131 39.01002471 9.35693359 37.35205078 C9.03055807 35.20136554 8.6973643 33.05184154 8.36328125 30.90234375 C8.09064453 29.09443359 8.09064453 29.09443359 7.8125 27.25 C7.65394531 26.20328125 7.49539063 25.1565625 7.33203125 24.078125 C6.96746361 20.69836855 6.94452498 17.39677814 7 14 C8.65 14 10.3 14 12 14 C13.93767185 18.20614074 14.63532452 22.36208238 15.21875 26.9140625 C15.3214772 27.6770163 15.42420441 28.43997009 15.53004456 29.2260437 C15.85992585 31.6915415 16.18012058 34.15818644 16.5 36.625 C16.72548384 38.32361371 16.95131468 40.02218139 17.17749023 41.72070312 C18.36022985 50.67307242 19.42866613 59.62155228 20.25732422 68.61425781 C20.94519993 75.51243729 22.27988065 82.27916419 23.67993164 89.06445312 C24.50510874 93.1016057 25.25604643 96.85204782 25 101 C18.07848583 103.47299933 11.20354094 105.1317215 4 106.5625 C1.93739144 106.97993269 -0.12511035 107.39789334 -2.1875 107.81640625 C-3.67382935 108.11514648 -3.67382935 108.11514648 -5.19018555 108.41992188 C-7.68442059 108.93484954 -10.16374628 109.49093146 -12.64453125 110.06640625 C-17.29180553 111.11348053 -21.96941169 111.74028995 -26.6875 112.375 C-34.03500725 113.41491506 -40.92469749 114.88772832 -48.015625 117.1015625 C-50.66031586 117.89773907 -53.22277315 118.45467945 -55.9375 118.9375 C-59.17044208 119.58289324 -61.05953104 120.62606357 -63.625 122.6875 C-66.40798035 124.87917737 -66.75387455 125.00863598 -70.5625 124.875 C-71.696875 124.58625 -72.83125 124.2975 -74 124 C-79.11806908 122.93847456 -84.04897158 122.84983373 -89.25 122.875 C-90.0646875 122.87113281 -90.879375 122.86726563 -91.71875 122.86328125 C-95.99418443 122.75096136 -95.99418443 122.75096136 -100 124 C-102.68880803 124.29829871 -105.3624866 124.54576398 -108.05859375 124.75390625 C-108.87634781 124.81907944 -109.69410187 124.88425262 -110.53663635 124.95140076 C-112.2808447 125.08885142 -114.02523238 125.22404198 -115.76977539 125.35717773 C-118.36874688 125.55720839 -120.9665267 125.76930587 -123.56445312 125.98242188 C-135.06470827 126.89104034 -146.46638498 127.16976878 -158 127 C-159.45288761 123.65891659 -160.3270292 120.69339101 -160.74609375 117.078125 C-160.85953125 116.14419922 -160.97296875 115.21027344 -161.08984375 114.24804688 C-161.20457031 113.25869141 -161.31929687 112.26933594 -161.4375 111.25 C-162.29001788 104.29501993 -163.20426268 97.3868396 -164.5 90.5 C-165.92337662 82.88516691 -166.90804878 75.23717888 -167.8684082 67.55175781 C-168.73832616 60.70495803 -169.80609623 53.92057586 -171.0859375 47.13867188 C-171.60614121 44.36704887 -172 41.82929907 -172 39 C-169.525 38.505 -169.525 38.505 -167 38 C-165.27183172 43.48668054 -164.35073883 48.84267513 -163.6328125 54.54296875 C-163.5131311 55.45714066 -163.39344971 56.37131256 -163.2701416 57.31318665 C-162.88372687 60.27070103 -162.50436356 63.22907371 -162.125 66.1875 C-161.59619183 70.25422646 -161.0638201 74.32048345 -160.53125 78.38671875 C-160.33530746 79.88819962 -160.33530746 79.88819962 -160.13540649 81.42001343 C-158.89056901 90.92330399 -157.53727653 100.40864446 -156.11767578 109.88745117 C-155.9679834 110.90427979 -155.81829102 111.9211084 -155.6640625 112.96875 C-155.53467285 113.82919922 -155.4052832 114.68964844 -155.27197266 115.57617188 C-154.99198843 118.07139931 -154.95235917 120.49128986 -155 123 C-149.98264218 122.59429094 -144.96557072 122.18525317 -139.94873047 121.77319336 C-138.24372618 121.63361655 -136.53864851 121.49493308 -134.83349609 121.35717773 C-132.37577572 121.15846537 -129.91834137 120.95649079 -127.4609375 120.75390625 C-126.70444916 120.6934462 -125.94796082 120.63298615 -125.16854858 120.57069397 C-121.06529539 120.22897134 -117.06097856 119.69889307 -113 119 C-111.60232511 118.87931504 -110.20218901 118.78290796 -108.80078125 118.71875 C-107.69959961 118.66267578 -107.69959961 118.66267578 -106.57617188 118.60546875 C-105.05536383 118.53461143 -103.53452992 118.46430723 -102.01367188 118.39453125 C-98.8022528 118.2301338 -96.06694397 118.02231466 -93 117 C-97.95061431 116.00928684 -102.66496845 115.85417677 -107.6875 115.8671875 C-108.50822998 115.86623077 -109.32895996 115.86527405 -110.17456055 115.86428833 C-111.90250729 115.86361059 -113.63045664 115.86543644 -115.35839844 115.86962891 C-117.99159506 115.87498291 -120.62462113 115.86967011 -123.2578125 115.86328125 C-124.94270871 115.8639421 -126.62760481 115.86522342 -128.3125 115.8671875 C-129.09391357 115.86516327 -129.87532715 115.86313904 -130.68041992 115.86105347 C-134.90252182 115.87901473 -138.83687842 116.20384497 -143 117 C-145.67810075 117.11196073 -148.31732686 117.04625299 -151 117 C-153.0480108 107.51461002 -154.59364198 98.12900369 -155.65048218 88.47518921 C-156.98979294 76.31981081 -158.64560127 64.24468297 -160.6875 52.1875 C-160.90196777 50.91898193 -161.11643555 49.65046387 -161.33740234 48.34350586 C-162.30096461 42.53949876 -162.30096461 42.53949876 -163.55297852 36.79467773 C-164.13289448 34.46646242 -164.20707496 32.27164814 -164.25 29.875 C-164.27578125 29.00617188 -164.3015625 28.13734375 -164.328125 27.2421875 C-164.21984375 26.50226563 -164.1115625 25.76234375 -164 25 C-153.61148812 18.07432542 -136.72131702 19.49966502 -124.74267578 19.55395508 C-121.87069973 19.56251281 -119.00069011 19.53349238 -116.12890625 19.50195312 C-105.04645361 19.46132708 -95.54377084 20.52294992 -85 24 C-82.82865955 24.71227443 -82.82865955 24.71227443 -81 25 C-79.08010184 23.87351618 -79.08010184 23.87351618 -77.125 22.125 C-63.39581121 12.03948155 -45.60778312 7.62140032 -29.30712891 3.5859375 C-27.353508 3.08977981 -25.41478497 2.53551968 -23.48046875 1.96875 C-15.56665888 -0.31958056 -8.18326366 -0.30184169 0 0 Z " fill="#F7F8F7" transform="translate(1635,77)"/>
<path d="M0 0 C10.89 0 21.78 0 33 0 C33.33 20.79 33.66 41.58 34 63 C37.3 60.36 40.6 57.72 44 55 C56.09877395 47.92687061 71.79423831 46.70287483 85.44384766 49.50097656 C93.45853474 51.73851811 100.89194849 55.27976129 107 61 C107.66128906 61.58394531 108.32257813 62.16789062 109.00390625 62.76953125 C121.10243993 74.04159963 127.66756495 89.54440849 128.37109375 105.96875 C128.80318676 129.12364457 124.51192338 146.57897701 108.31640625 163.7890625 C96.25568881 175.06887018 80.58426284 175.56097055 65.046875 175.3125 C53.23052963 174.87887265 44.29685032 170.52894174 35.4375 162.75 C34 161 34 161 34 159 C33.34 159 32.68 159 32 159 C32 164.28 32 169.56 32 175 C21.44 175 10.88 175 0 175 C0 117.25 0 59.5 0 0 Z " fill="#040303" transform="translate(1350,166)"/>
<path d="M0 0 C14.04491405 11.21729651 23.38153695 25.80782514 26.20458984 43.69970703 C28.24621088 62.70612436 23.73674042 81.28044791 11.95458984 96.44970703 C0.37460616 109.83786093 -15.06534308 118.16189509 -32.79541016 119.69970703 C-54.85709231 121.11391743 -75.01282727 118.69733732 -92.48681641 103.87939453 C-105.31229742 91.77005713 -112.29064374 76.15637929 -113.07275391 58.60595703 C-113.56500042 40.13008273 -110.24746655 23.33081329 -97.48291016 9.26220703 C-73.41071333 -16.03665099 -28.67472137 -20.76714251 0 0 Z " fill="#040404" transform="translate(884.79541015625,223.30029296875)"/>
<path d="M0 0 C1.19044922 0.00064453 2.38089844 0.00128906 3.60742188 0.00195312 C25.79360498 0.11053151 42.64256545 4.12051515 62.3125 14.1875 C61.60474481 18.29518922 60.39644234 22.08553909 59.02734375 26.01953125 C58.6965255 26.9744471 58.6965255 26.9744471 58.35902405 27.94865417 C57.65906706 29.96684462 56.95460815 31.9834293 56.25 34 C55.77248747 35.37424511 55.2952708 36.74859305 54.81835938 38.12304688 C53.65316087 41.47906146 52.48392161 44.83365178 51.3125 48.1875 C49.52005859 47.37345703 49.52005859 47.37345703 47.69140625 46.54296875 C46.08604011 45.82008458 44.48056552 45.09744122 42.875 44.375 C42.09189453 44.01857422 41.30878906 43.66214844 40.50195312 43.29492188 C27.98389291 37.67982491 16.42110979 35.03188027 2.6875 34.875 C1.80481445 34.85735596 0.92212891 34.83971191 0.01269531 34.8215332 C-9.56167296 34.83136866 -17.35626335 37.38938701 -24.5625 43.875 C-26.37726191 47.60534393 -26.29571549 51.12801522 -25.6875 55.1875 C-22.52543737 62.33651117 -16.32267431 64.7714226 -9.3984375 67.46875 C-2.62453831 69.84759254 4.0945404 71.62684144 11.125 73.0625 C29.57374157 76.89260624 51.50765843 84.68937433 62.625 100.6875 C69.67122347 111.94613967 70.89528208 123.97685249 68.6640625 136.9609375 C65.42889159 149.48685564 58.49270379 160.95739535 47.68359375 168.28125 C43.37619769 170.71695021 38.95533663 172.6384933 34.375 174.5 C33.14233398 175.00623901 33.14233398 175.00623901 31.88476562 175.52270508 C20.88848822 179.81337962 10.29755094 180.5531733 -1.4375 180.5 C-2.10412659 180.49718018 -2.77075317 180.49436035 -3.45758057 180.49145508 C-13.25362781 180.42917028 -22.28789676 180.10148772 -31.6875 177.1875 C-32.59193848 176.91873047 -33.49637695 176.64996094 -34.42822266 176.37304688 C-63.97049644 167.49198037 -63.97049644 167.49198037 -70.6875 159.1875 C-70.68929967 152.34964277 -66.92497775 144.93189732 -64.5625 138.625 C-64.00369141 137.11196289 -64.00369141 137.11196289 -63.43359375 135.56835938 C-62.52337803 133.10610915 -61.60793712 130.64594342 -60.6875 128.1875 C-56.45588318 128.1875 -55.67991256 128.54911432 -52.3125 130.75 C-32.29638336 143.18291827 -9.46398592 150.36975708 14.125 144.9375 C19.35147611 143.37321205 23.67399016 141.7942202 26.6875 137 C27.88786177 131.59837204 28.50424276 126.43206686 25.5625 121.5 C18.53301973 113.31433024 6.61202127 110.89146132 -3.4375 108.625 C-5.91738462 108.03163844 -8.39655943 107.43530215 -10.875 106.8359375 C-12.64230469 106.41199707 -12.64230469 106.41199707 -14.4453125 105.97949219 C-30.28153281 102.11106608 -50.09847509 96.69140211 -59.3125 82.0625 C-67.35855108 68.61078711 -68.87069021 54.95757018 -65.5625 39.625 C-61.81478613 27.20745958 -53.45205843 17.20571991 -42.18945312 10.84667969 C-35.60763077 7.33703725 -28.85036922 4.31216899 -21.6875 2.1875 C-20.54539062 1.82785156 -19.40328125 1.46820313 -18.2265625 1.09765625 C-12.2372331 -0.36545036 -6.12586953 -0.06200933 0 0 Z " fill="#030303" transform="translate(993.6875,163.8125)"/>
<path d="M0 0 C13.53 0 27.06 0 41 0 C41.04898438 5.5378125 41.09796875 11.075625 41.1484375 16.78125 C41.18384278 20.29949691 41.2198136 23.81771998 41.2578125 27.3359375 C41.3180092 32.91435243 41.37616521 38.49273416 41.421875 44.07128906 C41.45887825 48.57123542 41.50527821 53.0709976 41.55806351 57.57078552 C41.57652781 59.28344985 41.59166483 60.99615353 41.60334396 62.70887756 C41.62034359 65.11665515 41.64940988 67.52401823 41.68115234 69.93164062 C41.68331253 70.63223602 41.68547272 71.33283142 41.68769836 72.05465698 C41.81209008 79.49021801 43.0910082 86.20990711 48 92 C52.62122473 96.27782162 56.64243447 98.39220807 63 98.5625 C72.45649981 98.04515968 79.72372557 95.07264232 86.625 88.5 C93.80808356 79.17309868 93.60330154 67.2664363 93.609375 56.078125 C93.62438976 54.4810013 93.6411237 52.88389293 93.65948486 51.2868042 C93.70280157 47.12438158 93.72307726 42.96216824 93.73822021 38.79956055 C93.7613976 33.78315865 93.81378498 28.76698346 93.86116028 23.75076294 C93.92957117 16.16711684 93.96134496 8.58411855 94 1 C107.2 1 120.4 1 134 1 C134 43.57 134 86.14 134 130 C121.79 130 109.58 130 97 130 C97 124.39 97 118.78 97 113 C95.865625 114.010625 94.73125 115.02125 93.5625 116.0625 C92.04573068 117.37969441 90.52471372 118.6920098 89 120 C88.29101562 120.60972656 87.58203125 121.21945312 86.8515625 121.84765625 C75.31323217 131.32408278 62.5455167 134.67262594 47.75390625 134.4453125 C35.01533722 132.93418152 20.70886189 126.3535941 12.58984375 116.32421875 C4.68530431 104.76844242 -0.17741098 91.50784815 -0.11352539 77.5378418 C-0.11367142 76.6983046 -0.11381744 75.8587674 -0.1139679 74.99378967 C-0.11327326 72.22890608 -0.10550188 69.46409052 -0.09765625 66.69921875 C-0.09579048 64.77822405 -0.09436732 62.85722887 -0.09336853 60.93623352 C-0.08955591 55.88759033 -0.07973633 50.83897604 -0.06866455 45.79034424 C-0.05662192 39.72884468 -0.05204221 33.66733544 -0.04621124 27.60582733 C-0.03652391 18.4038648 -0.01735856 9.20196566 0 0 Z " fill="#020202" transform="translate(522,211)"/>
<path d="M0 0 C12.94633362 9.66028953 21.3072918 21.11650986 25.29492188 36.90087891 C26.42430374 45.37124289 26.04492188 53.98055449 26.04492188 62.52587891 C-4.31507812 62.52587891 -34.67507813 62.52587891 -65.95507812 62.52587891 C-62.56224703 73.83531589 -58.17229185 80.52923384 -47.95507812 86.52587891 C-39.88146573 89.86588974 -29.79044069 90.04402067 -21.45898438 87.42822266 C-15.15250316 84.41557239 -9.90064349 80.44235271 -4.95507812 75.52587891 C-1.67422529 76.95170408 0.39996122 78.69329297 2.85742188 81.27587891 C6.4182576 84.93692577 10.12255619 88.25724083 14.04492188 91.52587891 C13.15238318 97.02782974 9.12649879 100.05319297 5.04492188 103.52587891 C-10.83122068 114.57982863 -29.33796364 117.56769246 -48.27148438 115.09228516 C-64.47419292 111.61873512 -78.43856536 102.14035981 -87.98242188 88.72509766 C-97.01386575 74.07806294 -100.17526625 55.56948415 -97.29882812 38.67041016 C-92.76861658 19.82707336 -83.58491908 7.00437746 -67.73632812 -4.01708984 C-46.80966274 -16.70583285 -19.61561895 -13.75590486 0 0 Z " fill="#040404" transform="translate(1586.955078125,226.47412109375)"/>
<path d="M0 0 C13.2 0 26.4 0 40 0 C40 11.22 40 22.44 40 34 C50.23 34 60.46 34 71 34 C71 43.9 71 53.8 71 64 C60.77 64 50.54 64 40 64 C40.06765978 71.58256203 40.13810419 79.16418723 40.2355423 86.74627686 C40.28011791 90.27744362 40.31957026 93.80849406 40.34643555 97.33984375 C40.37753348 101.39612711 40.43231962 105.4517954 40.48828125 109.5078125 C40.49467117 110.76739777 40.5010611 112.02698303 40.50764465 113.32473755 C40.52743881 114.50550873 40.54723297 115.68627991 40.56762695 116.90283203 C40.58428154 118.45503952 40.58428154 118.45503952 40.60127258 120.03860474 C41.18328234 124.3612594 42.75591 127.74261844 45.828125 130.84765625 C50.21751788 133.17656075 55.18875692 132.58448605 60 132 C62.94484272 130.93376384 65.28659552 129.60794339 68 128 C68.66 128 69.32 128 70 128 C71.42842911 131.66452852 72.85247676 135.33072569 74.27246094 138.99853516 C74.99441847 140.86060415 75.71985238 142.72132407 76.4453125 144.58203125 C77.12207031 146.33193359 77.12207031 146.33193359 77.8125 148.1171875 C78.23144531 149.19597168 78.65039062 150.27475586 79.08203125 151.38623047 C80 154 80 154 80 156 C62.66060916 165.35500384 62.66060916 165.35500384 53 166 C52.04867187 166.06832031 51.09734375 166.13664063 50.1171875 166.20703125 C35.50313717 166.72214791 21.59881717 162.21492167 10.5625 152.4375 C2.85768873 144.09606238 -0.13544046 132.53287382 -0.11352539 121.44384766 C-0.11344986 120.16297272 -0.11337433 118.88209778 -0.11329651 117.56240845 C-0.10819105 116.17962606 -0.10297508 114.79684408 -0.09765625 113.4140625 C-0.09578917 111.98774261 -0.09436664 110.56142208 -0.09336853 109.13510132 C-0.08956615 105.39673058 -0.07975552 101.65839922 -0.06866455 97.92004395 C-0.05840124 94.09904513 -0.0538604 90.2780399 -0.04882812 86.45703125 C-0.03813103 78.97133421 -0.02055289 71.48567766 0 64 C-6.6 64 -13.2 64 -20 64 C-20 53.77 -20 43.54 -20 33 C-13.4 33 -6.8 33 0 33 C0 22.11 0 11.22 0 0 Z " fill="#040303" transform="translate(691,179)"/>
<path d="M0 0 C4.9407451 4.28345614 10.15364413 9.03483014 13.23828125 14.890625 C13.23828125 16.210625 13.23828125 17.530625 13.23828125 18.890625 C10.89453125 20.6015625 10.89453125 20.6015625 7.73828125 22.265625 C3.08258419 24.79911386 -0.96405161 27.43047843 -4.9453125 30.921875 C-6.76171875 31.890625 -6.76171875 31.890625 -9.2421875 31.81640625 C-12.40127157 30.65562652 -13.56334886 29.20640094 -15.63671875 26.578125 C-21.03098114 20.18831137 -26.11924 17.37745839 -34.5234375 16.65234375 C-44.76949951 16.39243029 -52.48789714 18.78522634 -60.0078125 25.91015625 C-67.99018076 34.92365448 -69.3317352 45.36112989 -69.1328125 57.0390625 C-68.13712882 67.37321097 -63.70945439 76.18562621 -55.76171875 82.890625 C-48.13943765 88.30568184 -38.83012107 87.90063419 -29.921875 86.41796875 C-22.64738425 84.54610441 -16.50971253 80.79849692 -12.26171875 74.515625 C-11.76671875 73.649375 -11.27171875 72.783125 -10.76171875 71.890625 C-4.81556181 73.53026296 0.27350203 76.51437962 5.61328125 79.515625 C6.54011719 80.03125 7.46695312 80.546875 8.421875 81.078125 C10.6965755 82.34445311 12.96856917 83.61538425 15.23828125 84.890625 C10.38087225 97.73036716 -0.51198994 105.8515354 -12.51171875 111.56640625 C-29.11338631 118.33078762 -48.40362372 117.92518668 -64.85058594 111.01269531 C-72.40270669 107.6527722 -80.15490608 104.12203079 -85.76171875 97.890625 C-86.75558594 96.79814453 -86.75558594 96.79814453 -87.76953125 95.68359375 C-94.01651554 88.36470994 -98.19479349 80.17104709 -100.76171875 70.890625 C-100.94605469 70.27058594 -101.13039063 69.65054688 -101.3203125 69.01171875 C-105.4905109 52.47472509 -103.54525341 33.72705885 -95.55859375 18.7421875 C-92.51077843 13.9054371 -88.81692597 9.8969743 -84.76171875 5.890625 C-84.14683594 5.25382812 -83.53195312 4.61703125 -82.8984375 3.9609375 C-61.99070597 -16.18569888 -22.76273397 -17.38596371 0 0 Z " fill="#030303" transform="translate(1173.76171875,226.109375)"/>
<path d="M0 0 C2.78748574 13.03297855 4.71500318 26.08265221 6.24588013 39.31237793 C8.05709709 54.94547379 10.38267884 70.48113616 13 86 C12.1028125 86.09796875 11.205625 86.1959375 10.28125 86.296875 C-13.09092973 89.0976734 -38.58101742 95.89214017 -58.9609375 107.8984375 C-61 109 -61 109 -63 109 C-63.12155205 108.14247383 -63.12155205 108.14247383 -63.24555969 107.2676239 C-64.10389447 101.21437523 -64.96434725 95.16143011 -65.82592773 89.10864258 C-66.14546062 86.86197203 -66.46448716 84.6152294 -66.78295898 82.3684082 C-68.35715359 71.26475839 -69.94092436 60.16310912 -71.66796875 49.08203125 C-71.7884407 48.29994797 -71.90891266 47.51786469 -72.03303528 46.71208191 C-72.5093467 43.70166395 -73.03413012 40.89760965 -74 38 C-75.41714325 26.23917197 -75.41714325 26.23917197 -72.70703125 21.95703125 C-70.56141171 20.25060036 -68.494248 19.14698996 -66 18 C-64.90042969 17.48050781 -63.80085938 16.96101563 -62.66796875 16.42578125 C-56.2401218 13.54961571 -49.73079172 11.05789409 -43 9 C-42.05125 8.69449219 -41.1025 8.38898438 -40.125 8.07421875 C-34.00331731 6.13118466 -27.85014629 4.38669988 -21.625 2.8125 C-20.97136475 2.64564697 -20.31772949 2.47879395 -19.64428711 2.30688477 C-13.04027231 0.67164495 -6.8055469 -0.13888871 0 0 Z " fill="#F9F9F8" transform="translate(1631,82)"/>
<path d="M0 0 C0 10.56 0 21.12 0 32 C-2.619375 32.0825 -5.23875 32.165 -7.9375 32.25 C-17.85767852 32.75511604 -24.84945233 35.08637237 -32.2734375 41.93359375 C-35.26237789 45.51085499 -36.68776024 49.57397096 -38 54 C-38.17502548 54.56620056 -38.35005096 55.13240112 -38.53038025 55.71575928 C-39.16261789 58.79097696 -39.16579495 61.74028457 -39.20532227 64.87988281 C-39.21522186 65.56321686 -39.22512146 66.2465509 -39.23532104 66.95059204 C-39.26682044 69.20140154 -39.29164752 71.45223211 -39.31640625 73.703125 C-39.33698577 75.26683083 -39.35798251 76.83053122 -39.37937927 78.39422607 C-39.43449686 82.50410551 -39.48395148 86.61403428 -39.53222656 90.72399902 C-39.59136354 95.65835959 -39.65753462 100.59263024 -39.72252655 105.5269165 C-39.82040628 113.01788928 -39.90935099 120.50892051 -40 128 C-51.22 128 -62.44 128 -74 128 C-74 86.75 -74 45.5 -74 3 C-63.44 3 -52.88 3 -42 3 C-41.505 10.425 -41.505 10.425 -41 18 C-40.0925 16.989375 -39.185 15.97875 -38.25 14.9375 C-27.79497612 4.50364014 -14.46729332 0 0 0 Z " fill="#040303" transform="translate(1275,213)"/>
<path d="M0 0 C1.92679459 6.80580235 2.7146149 13.53735734 3.4375 20.5625 C4.35840389 29.04792934 5.49759217 37.30437342 7.31640625 45.64453125 C8.29253317 50.43591996 8.86220373 55.25861662 9.4609375 60.109375 C9.94260069 63.58572671 10.54635677 67.00171544 11.20776367 70.44604492 C12.72719858 78.38106925 13.38093242 85.88755032 13 94 C6.41590045 95.56552789 -0.14454993 97.02588879 -6.8125 98.1875 C-20.1862089 100.80075346 -33.57622131 105.41627924 -46 111 C-19.28044991 107.16514385 -19.28044991 107.16514385 6 99 C8.204364 98.77049681 10.41392173 98.58924067 12.625 98.4375 C14.40777344 98.31181641 14.40777344 98.31181641 16.2265625 98.18359375 C17.14179687 98.12300781 18.05703125 98.06242187 19 98 C18.80664062 97.14921875 18.61328125 96.2984375 18.4140625 95.421875 C16.60727772 87.01406463 15.43499862 78.71726024 14.73486328 70.14355469 C14.32670247 65.38968172 13.60481134 60.87956072 12.50610352 56.23730469 C11.65153132 52.45954319 11.08396169 48.63985411 10.5 44.8125 C10.37326904 43.99168945 10.24653809 43.17087891 10.1159668 42.32519531 C9.86128333 40.66773658 9.60824131 39.01002471 9.35693359 37.35205078 C9.03055807 35.20136554 8.6973643 33.05184154 8.36328125 30.90234375 C8.09064453 29.09443359 8.09064453 29.09443359 7.8125 27.25 C7.65394531 26.20328125 7.49539063 25.1565625 7.33203125 24.078125 C6.96746361 20.69836855 6.94452498 17.39677814 7 14 C8.65 14 10.3 14 12 14 C13.93767185 18.20614074 14.63532452 22.36208238 15.21875 26.9140625 C15.3214772 27.6770163 15.42420441 28.43997009 15.53004456 29.2260437 C15.85992585 31.6915415 16.18012058 34.15818644 16.5 36.625 C16.72548384 38.32361371 16.95131468 40.02218139 17.17749023 41.72070312 C18.36022985 50.67307242 19.42866613 59.62155228 20.25732422 68.61425781 C20.94519993 75.51243729 22.27988065 82.27916419 23.67993164 89.06445312 C24.50510874 93.1016057 25.25604643 96.85204782 25 101 C18.07848583 103.47299933 11.20354094 105.1317215 4 106.5625 C1.93739144 106.97993269 -0.12511035 107.39789334 -2.1875 107.81640625 C-3.67382935 108.11514648 -3.67382935 108.11514648 -5.19018555 108.41992188 C-7.68442059 108.93484954 -10.16374628 109.49093146 -12.64453125 110.06640625 C-17.29180553 111.11348053 -21.96941169 111.74028995 -26.6875 112.375 C-34.03500725 113.41491506 -40.92469749 114.88772832 -48.015625 117.1015625 C-50.66031586 117.89773907 -53.22277315 118.45467945 -55.9375 118.9375 C-59.17044208 119.58289324 -61.05953104 120.62606357 -63.625 122.6875 C-66.40798035 124.87917737 -66.75387455 125.00863598 -70.5625 124.875 C-71.696875 124.58625 -72.83125 124.2975 -74 124 C-79.11806908 122.93847456 -84.04897158 122.84983373 -89.25 122.875 C-90.0646875 122.87113281 -90.879375 122.86726563 -91.71875 122.86328125 C-95.99418443 122.75096136 -95.99418443 122.75096136 -100 124 C-102.68880803 124.29829871 -105.3624866 124.54576398 -108.05859375 124.75390625 C-108.87634781 124.81907944 -109.69410187 124.88425262 -110.53663635 124.95140076 C-112.2808447 125.08885142 -114.02523238 125.22404198 -115.76977539 125.35717773 C-118.36874688 125.55720839 -120.9665267 125.76930587 -123.56445312 125.98242188 C-135.06470827 126.89104034 -146.46638498 127.16976878 -158 127 C-159.45288761 123.65891659 -160.3270292 120.69339101 -160.74609375 117.078125 C-160.85953125 116.14419922 -160.97296875 115.21027344 -161.08984375 114.24804688 C-161.20457031 113.25869141 -161.31929687 112.26933594 -161.4375 111.25 C-162.29001788 104.29501993 -163.20426268 97.3868396 -164.5 90.5 C-165.92337662 82.88516691 -166.90804878 75.23717888 -167.8684082 67.55175781 C-168.73832616 60.70495803 -169.80609623 53.92057586 -171.0859375 47.13867188 C-171.60614121 44.36704887 -172 41.82929907 -172 39 C-169.525 38.505 -169.525 38.505 -167 38 C-165.27183172 43.48668054 -164.35073883 48.84267513 -163.6328125 54.54296875 C-163.5131311 55.45714066 -163.39344971 56.37131256 -163.2701416 57.31318665 C-162.88372687 60.27070103 -162.50436356 63.22907371 -162.125 66.1875 C-161.59619183 70.25422646 -161.0638201 74.32048345 -160.53125 78.38671875 C-160.33530746 79.88819962 -160.33530746 79.88819962 -160.13540649 81.42001343 C-158.89056901 90.92330399 -157.53727653 100.40864446 -156.11767578 109.88745117 C-155.9679834 110.90427979 -155.81829102 111.9211084 -155.6640625 112.96875 C-155.53467285 113.82919922 -155.4052832 114.68964844 -155.27197266 115.57617188 C-154.99198843 118.07139931 -154.95235917 120.49128986 -155 123 C-149.98264218 122.59429094 -144.96557072 122.18525317 -139.94873047 121.77319336 C-138.24372618 121.63361655 -136.53864851 121.49493308 -134.83349609 121.35717773 C-132.37577572 121.15846537 -129.91834137 120.95649079 -127.4609375 120.75390625 C-126.70444916 120.6934462 -125.94796082 120.63298615 -125.16854858 120.57069397 C-121.06529539 120.22897134 -117.06097856 119.69889307 -113 119 C-111.60232511 118.87931504 -110.20218901 118.78290796 -108.80078125 118.71875 C-107.69959961 118.66267578 -107.69959961 118.66267578 -106.57617188 118.60546875 C-105.05536383 118.53461143 -103.53452992 118.46430723 -102.01367188 118.39453125 C-98.8022528 118.2301338 -96.06694397 118.02231466 -93 117 C-97.95061431 116.00928684 -102.66496845 115.85417677 -107.6875 115.8671875 C-108.50822998 115.86623077 -109.32895996 115.86527405 -110.17456055 115.86428833 C-111.90250729 115.86361059 -113.63045664 115.86543644 -115.35839844 115.86962891 C-117.99159506 115.87498291 -120.62462113 115.86967011 -123.2578125 115.86328125 C-124.94270871 115.8639421 -126.62760481 115.86522342 -128.3125 115.8671875 C-129.09391357 115.86516327 -129.87532715 115.86313904 -130.68041992 115.86105347 C-134.90252182 115.87901473 -138.83687842 116.20384497 -143 117 C-145.67810075 117.11196073 -148.31732686 117.04625299 -151 117 C-153.0480108 107.51461002 -154.59364198 98.12900369 -155.65048218 88.47518921 C-156.98979294 76.31981081 -158.64560127 64.24468297 -160.6875 52.1875 C-160.90196777 50.91898193 -161.11643555 49.65046387 -161.33740234 48.34350586 C-162.30096461 42.53949876 -162.30096461 42.53949876 -163.55297852 36.79467773 C-164.13289448 34.46646242 -164.20707496 32.27164814 -164.25 29.875 C-164.27578125 29.00617188 -164.3015625 28.13734375 -164.328125 27.2421875 C-164.21984375 26.50226563 -164.1115625 25.76234375 -164 25 C-153.61148812 18.07432542 -136.72131702 19.49966502 -124.74267578 19.55395508 C-121.87069973 19.56251281 -119.00069011 19.53349238 -116.12890625 19.50195312 C-105.04645361 19.46132708 -95.54377084 20.52294992 -85 24 C-82.82865955 24.71227443 -82.82865955 24.71227443 -81 25 C-79.08010184 23.87351618 -79.08010184 23.87351618 -77.125 22.125 C-63.39581121 12.03948155 -45.60778312 7.62140032 -29.30712891 3.5859375 C-27.353508 3.08977981 -25.41478497 2.53551968 -23.48046875 1.96875 C-15.56665888 -0.31958056 -8.18326366 -0.30184169 0 0 Z M-20.75 6.75 C-21.63743896 6.92974365 -22.52487793 7.1094873 -23.43920898 7.29467773 C-29.01843648 8.46814954 -34.28275443 9.94629209 -39.58203125 12.07421875 C-42.11340972 13.04342182 -44.62112325 13.71874026 -47.25 14.375 C-57.77634321 17.16493337 -70.1220563 21.1220563 -78 29 C-78.5670786 36.25206287 -78.13563574 43.10038179 -76.67578125 50.20703125 C-74.74552722 59.96237482 -73.34768056 69.78343359 -71.9375 79.625 C-71.67933846 81.4088979 -71.420876 83.19275227 -71.16210938 84.9765625 C-70.43677433 89.98371411 -69.71710684 94.99166395 -69 100 C-68.84062958 101.11296448 -68.84062958 101.11296448 -68.67803955 102.24841309 C-68.1174291 106.16542881 -67.55805352 110.08261921 -67 114 C-63.57662697 112.65300959 -60.25389168 111.1878936 -56.93969727 109.58911133 C-45.24050741 103.97003107 -33.35802703 99.89550224 -20.7421875 96.90625 C-17.60487579 96.14648349 -14.53064579 95.29284741 -11.4375 94.375 C-4.74501967 92.50233349 2.1100534 91.79034475 9 91 C8.89042969 90.45174561 8.78085938 89.90349121 8.66796875 89.33862305 C6.9153051 80.16652807 5.67168806 70.92504696 4.39550781 61.67749023 C4.00325214 58.83605792 3.60739225 55.99514602 3.2109375 53.15429688 C2.05524616 44.84228929 0.92649088 36.52997454 -0.0859375 28.19921875 C-0.75577138 22.75560498 -1.5452536 17.37669635 -2.625 12 C-2.82609375 10.96359375 -2.82609375 10.96359375 -3.03125 9.90625 C-3.34942822 8.26990485 -3.67391211 6.63478731 -4 5 C-9.80032539 4.78052823 -15.07538846 5.58288131 -20.75 6.75 Z M-158 29 C-157.93507401 36.33663653 -156.52151215 43.74553237 -155.5 51 C-155.36948242 51.93231445 -155.23896484 52.86462891 -155.10449219 53.82519531 C-154.97719727 54.70788086 -154.84990234 55.59056641 -154.71875 56.5 C-154.60466797 57.2940625 -154.49058594 58.088125 -154.37304688 58.90625 C-154.01963941 61.18261023 -154.01963941 61.18261023 -153 64 C-152.80948289 65.56900571 -152.65922224 67.1430967 -152.53515625 68.71875 C-152.45845703 69.64550537 -152.38175781 70.57226074 -152.30273438 71.52709961 C-152.22345703 72.50815674 -152.14417969 73.48921387 -152.0625 74.5 C-151.4908997 81.18353318 -150.86200714 87.75060817 -149.5078125 94.328125 C-148.39695973 100.17291959 -147.75591173 106.10113977 -147 112 C-145.67488403 111.89606934 -145.67488403 111.89606934 -144.32299805 111.79003906 C-134.47935731 111.06947559 -124.68156412 110.76279248 -114.8125 110.75 C-113.67152863 110.74699387 -113.67152863 110.74699387 -112.50750732 110.743927 C-100.43802048 110.73616884 -88.84592964 111.54165116 -77 114 C-76.00742188 114.19722656 -75.01484375 114.39445312 -73.9921875 114.59765625 C-73.33476563 114.73042969 -72.67734375 114.86320312 -72 115 C-72.52220732 107.31094745 -73.58280795 99.72550723 -74.70019531 92.10644531 C-76.09995571 82.48183979 -77.32999722 72.83664515 -78.55395508 63.18847656 C-79.62472377 54.7809594 -80.7432075 46.3819897 -82 38 C-82.11980225 37.10273193 -82.23960449 36.20546387 -82.36303711 35.28100586 C-82.90509005 32.7335897 -83.45510876 31.09767993 -85 29 C-94.60592247 22.89884358 -107.88045477 24.43241553 -118.71826172 24.53344727 C-122.12386614 24.56249033 -125.52791752 24.55401065 -128.93359375 24.54101562 C-131.12500747 24.54725221 -133.31641634 24.55564252 -135.5078125 24.56640625 C-136.51224396 24.56347061 -137.51667542 24.56053497 -138.55154419 24.55751038 C-148.97175998 24.61096997 -148.97175998 24.61096997 -158 29 Z " fill="#161515" transform="translate(1635,77)"/>
<path d="M0 0 C11.22 0 22.44 0 34 0 C34 41.58 34 83.16 34 126 C22.78 126 11.56 126 0 126 C0 84.42 0 42.84 0 0 Z " fill="#070706" transform="translate(1292,215)"/>
<path d="M0 0 C8.80728022 5.20230362 14.23634937 12.08243048 17.4609375 21.7109375 C19.84978894 31.61362122 19.76677779 44.8704982 14.9375 54.07421875 C9.84763148 61.86554368 3.32164407 67.54514455 -5.65234375 70.38671875 C-8.43669654 70.83078383 -11.14841092 70.91218954 -13.96484375 70.88671875 C-14.7110498 70.88027344 -15.45725586 70.87382812 -16.22607422 70.8671875 C-24.52837294 70.59338637 -30.4457116 67.88902632 -36.40234375 62.07421875 C-43.82754869 52.67366237 -46.68290557 40.97528675 -46.1640625 29.21484375 C-44.78592219 18.90509179 -40.7413287 10.07827109 -32.65234375 3.38671875 C-22.51341611 -3.61466108 -11.35761133 -5.2632833 0 0 Z " fill="#FBFBFB" transform="translate(1427.65234375,244.61328125)"/>
<path d="M0 0 C0.04898437 0.95519531 0.09796875 1.91039063 0.1484375 2.89453125 C0.55561115 9.93582725 1.12181611 16.71683169 2.59765625 23.6328125 C3.02219337 26.1305746 3.06749259 28.47127754 3 31 C2.29875 30.71125 1.5975 30.4225 0.875 30.125 C-2.05466229 28.97861041 -5.01271727 27.98472755 -8 27 C-13.17112144 37.20889017 -18.17949899 47.48589663 -23.05395508 57.84008789 C-25.82616343 63.6897065 -28.77686948 69.38576646 -32 75 C-36.02015022 71.21357945 -39.17908343 66.92502065 -42.46484375 62.51367188 C-44.79593269 59.26796066 -44.79593269 59.26796066 -48 57 C-60.75173022 87.89899369 -60.75173022 87.89899369 -73 119 C-73.66 119 -74.32 119 -75 119 C-75.38464165 118.23618515 -75.38464165 118.23618515 -75.77705383 117.4569397 C-78.44437484 112.16406509 -81.12264226 106.87683777 -83.80737305 101.59277344 C-84.80824872 99.61927064 -85.80631207 97.64433895 -86.80151367 95.66796875 C-88.23141598 92.82953785 -89.67131055 89.99637749 -91.11328125 87.1640625 C-91.55714676 86.27756012 -92.00101227 85.39105774 -92.45832825 84.47769165 C-92.87853745 83.65699188 -93.29874664 82.83629211 -93.73168945 81.99072266 C-94.28129082 80.9048436 -94.28129082 80.9048436 -94.84199524 79.79702759 C-96.02904358 77.69251119 -96.02904358 77.69251119 -99 76 C-99.26554687 76.70995117 -99.53109375 77.41990234 -99.8046875 78.15136719 C-101.04919597 81.11724236 -102.51052263 83.79690613 -104.125 86.578125 C-104.74479736 87.6491748 -105.36459473 88.72022461 -106.00317383 89.82373047 C-106.66212646 90.95439941 -107.3210791 92.08506836 -108 93.25 C-108.67823073 94.41928733 -109.35620775 95.58872187 -110.03393555 96.75830078 C-114.33116387 104.16665073 -118.65444343 111.56003642 -123.02929688 118.92285156 C-124.79461989 121.90164093 -126.51398971 124.87072964 -128 128 C-131.89522498 122.76321717 -135.69326636 117.47619946 -139.35546875 112.07421875 C-139.93594971 111.21803955 -140.51643066 110.36186035 -141.11450195 109.47973633 C-142.28238976 107.75179359 -143.44633542 106.02117946 -144.60620117 104.2878418 C-145.4160144 103.08961792 -145.4160144 103.08961792 -146.2421875 101.8671875 C-146.7254248 101.14644043 -147.20866211 100.42569336 -147.70654297 99.68310547 C-148.91065492 97.86271841 -148.91065492 97.86271841 -151 97 C-151.26949463 97.71333496 -151.53898926 98.42666992 -151.81665039 99.16162109 C-153.92046134 104.20781587 -156.74693037 108.87313058 -159.4375 113.625 C-160.02337891 114.67429687 -160.60925781 115.72359375 -161.21289062 116.8046875 C-161.78072266 117.81015625 -162.34855469 118.815625 -162.93359375 119.8515625 C-163.44978271 120.76760254 -163.96597168 121.68364258 -164.49780273 122.62744141 C-166 125 -166 125 -169 128 C-171.31 126.35 -173.62 124.7 -176 123 C-174.71383439 118.73271576 -173.08893702 115.16779311 -170.76953125 111.3671875 C-170.13080078 110.31273437 -169.49207031 109.25828125 -168.83398438 108.171875 C-168.16689453 107.08390625 -167.49980469 105.9959375 -166.8125 104.875 C-165.50576593 102.72701524 -164.19977406 100.57857877 -162.89453125 98.4296875 C-162.25338379 97.37620117 -161.61223633 96.32271484 -160.95166016 95.23730469 C-157.90988704 90.1917816 -154.94992102 85.09974689 -152 80 C-148.78426812 81.36606218 -147.16915434 82.73010069 -145.1953125 85.59765625 C-144.69692871 86.31308594 -144.19854492 87.02851563 -143.68505859 87.765625 C-143.17023926 88.52359375 -142.65541992 89.2815625 -142.125 90.0625 C-141.59342285 90.82949219 -141.0618457 91.59648437 -140.51416016 92.38671875 C-137.29275493 97.04940892 -134.12283812 101.74583084 -131.0859375 106.53125 C-130.05073295 108.1635185 -130.05073295 108.1635185 -128 109 C-127.79503906 108.23558594 -127.59007812 107.47117187 -127.37890625 106.68359375 C-125.43609241 101.49358398 -122.69535438 96.85871746 -119.9375 92.0625 C-119.35476318 91.04067627 -118.77202637 90.01885254 -118.17163086 88.96606445 C-113.56055673 80.90763626 -108.82775541 72.92992755 -104 65 C-102.81104932 63.02170447 -101.62337733 61.04263936 -100.4375 59.0625 C-99.625 57.70833333 -98.8125 56.35416667 -98 55 C-94.5292214 56.7353893 -93.60412704 60.89320283 -92.0625 64.3125 C-87.21661107 74.82999383 -81.69396426 84.9221162 -76 95 C-73.89524854 92.36088183 -72.39874988 89.92641524 -71.16235352 86.7890625 C-70.83513809 85.96720459 -70.50792267 85.14534668 -70.17079163 84.29858398 C-69.82696945 83.41630127 -69.48314728 82.53401855 -69.12890625 81.625 C-68.76530502 80.70468994 -68.4017038 79.78437988 -68.02708435 78.83618164 C-67.25855047 76.88721425 -66.49300076 74.93706785 -65.73022461 72.98583984 C-64.57654411 70.0359104 -63.41313712 67.08997024 -62.24804688 64.14453125 C-58.58167267 54.84047384 -54.96260268 45.55694543 -52 36 C-51.34 36 -50.68 36 -50 36 C-48.70409429 37.59381506 -47.48847306 39.25324782 -46.3125 40.9375 C-42.67445373 46.0720004 -38.89190768 51.05680221 -35 56 C-30.63139309 49.08493024 -27.03389093 42.04754151 -23.75 34.5625 C-22.89297291 32.62526168 -22.03369714 30.68901616 -21.171875 28.75390625 C-20.8015918 27.91158447 -20.43130859 27.0692627 -20.04980469 26.20141602 C-19 24 -19 24 -17 21 C-17.928125 20.731875 -18.85625 20.46375 -19.8125 20.1875 C-22.85184289 19.05519579 -23.90073617 18.30099489 -26 16 C-20.22099442 12.10452216 -14.38334446 8.31854955 -8.48046875 4.61328125 C-6.00060947 3.04940683 -6.00060947 3.04940683 -3.80078125 1.29296875 C-2 0 -2 0 0 0 Z " fill="#080808" transform="translate(1329,80)"/>
<path d="M0 0 C8.87405622 4.43702811 14.00653191 10.98175346 17.1875 20.37109375 C20.38937426 33.87088794 17.65693612 44.23755576 10.89453125 56.0546875 C7.05985317 61.45622329 -0.54321645 64.83514709 -6.9453125 66.02734375 C-17.01138784 67.05211173 -24.51744027 65.76462766 -32.9453125 60.02734375 C-38.35144646 55.55712365 -40.78201587 48.51723364 -42.9453125 42.02734375 C-43.92466452 31.31521616 -44.71570639 19.9462093 -37.9453125 11.02734375 C-37.53410156 10.39054687 -37.12289062 9.75375 -36.69921875 9.09765625 C-28.34456343 -2.45507188 -12.77374441 -5.07674457 0 0 Z " fill="#FBFBFA" transform="translate(853.9453125,245.97265625)"/>
<path d="M0 0 C1.89140507 2.83710761 2.99287095 5.3026472 4.21484375 8.46875 C4.64861328 9.58467529 5.08238281 10.70060059 5.52929688 11.8503418 C5.99400391 13.054729 6.45871094 14.25911621 6.9375 15.5 C7.9230744 18.03881869 8.91203016 20.57630774 9.90234375 23.11328125 C10.15583588 23.76303421 10.409328 24.41278717 10.67050171 25.08222961 C13.80946349 33.10394524 17.08788841 41.06844887 20.38256836 49.02734375 C20.8131958 50.0740625 21.24382324 51.12078125 21.6875 52.19921875 C22.06261719 53.10502686 22.43773437 54.01083496 22.82421875 54.9440918 C24.35139856 58.91330062 25.65512466 62.96537397 27 67 C9.51 67 -7.98 67 -26 67 C-24.87507384 58.00059073 -24.87507384 58.00059073 -23.54467773 54.92089844 C-23.24999603 54.22464859 -22.95531433 53.52839874 -22.65170288 52.81105042 C-22.33222687 52.08449753 -22.01275085 51.35794464 -21.68359375 50.609375 C-21.35106598 49.83025253 -21.01853821 49.05113007 -20.67593384 48.24839783 C-19.60551069 45.7449346 -18.52157964 43.24757542 -17.4375 40.75 C-16.33567853 38.18199124 -15.23743626 35.61247308 -14.13957214 33.04277039 C-13.419503 31.35765322 -12.69833133 29.67300673 -11.97602844 27.98884583 C-8.89644443 20.79830409 -5.96056718 13.55938619 -3.12084961 6.27050781 C-1.09314977 1.09314977 -1.09314977 1.09314977 0 0 Z " fill="#FAFAF8" transform="translate(415,208)"/>
<path d="M0 0 C1.92679459 6.80580235 2.7146149 13.53735734 3.4375 20.5625 C4.35840389 29.04792934 5.49759217 37.30437342 7.31640625 45.64453125 C8.29253317 50.43591996 8.86220373 55.25861662 9.4609375 60.109375 C9.94260069 63.58572671 10.54635677 67.00171544 11.20776367 70.44604492 C12.72719858 78.38106925 13.38093242 85.88755032 13 94 C6.35420716 95.58019695 -0.27381169 97.05340738 -7 98.25 C-14.56799682 99.70507985 -21.70609405 102.12227459 -28.94335938 104.75097656 C-30.23016602 105.20682129 -30.23016602 105.20682129 -31.54296875 105.671875 C-32.30633545 105.9512793 -33.06970215 106.23068359 -33.85620117 106.51855469 C-36.2701008 107.0606581 -37.68040267 106.78559047 -40 106 C-40.33 104.68 -40.66 103.36 -41 102 C-37.90031947 101.04625215 -34.80041917 100.09333095 -31.69921875 99.14453125 C-29.38444371 98.42834425 -27.07373744 97.69871266 -24.76953125 96.94921875 C-13.77568091 93.4120669 -2.62844456 90.3879766 9 91 C8.72845093 90.17761841 8.72845093 90.17761841 8.45141602 89.33862305 C5.43829497 79.37006099 4.31161811 69.10303987 2.9375 58.8125 C2.67968473 56.92634357 2.42122524 55.04027507 2.16210938 53.15429688 C0.84751904 43.53911535 -0.4049518 33.91863572 -1.5559082 24.2824707 C-2.06209792 20.54100796 -2.77066537 16.88501064 -3.6328125 13.2109375 C-4.09078794 10.45334071 -4.05595821 7.78991669 -4 5 C-15.23605285 6.69892208 -26.07440985 8.82305535 -37 12 C-37.84304688 12.23460938 -38.68609375 12.46921875 -39.5546875 12.7109375 C-59.78732187 18.01849598 -59.78732187 18.01849598 -77 29 C-77.80128402 36.18033736 -77.11222413 43.16725448 -75.671875 50.20703125 C-73.75096097 59.94265665 -72.34861283 69.74234337 -70.9375 79.5625 C-70.67931745 81.33793151 -70.42085487 83.11332232 -70.16210938 84.88867188 C-68.7053294 94.91695728 -67.31050518 104.95151723 -66 115 C-69.465 115.495 -69.465 115.495 -73 116 C-72.95875 115.030625 -72.9175 114.06125 -72.875 113.0625 C-72.87150604 110.24322386 -73.21678632 107.80957285 -73.9140625 105.08203125 C-75.32077455 98.99354727 -75.87361876 92.83374587 -76.5 86.625 C-77.2532854 79.20803606 -78.14384415 71.91315723 -79.54931641 64.59082031 C-80.27200489 60.43634023 -80.58758084 56.26152992 -80.9375 52.0625 C-81.19432401 49.48558669 -81.46576527 46.91082968 -81.74658203 44.33642578 C-81.96887472 42.28696432 -82.17158358 40.23539832 -82.37109375 38.18359375 C-82.87525198 34.99840804 -83.44642739 32.81738154 -85 30 C-93.64892531 24.80571233 -104.50319827 25.34113122 -114.25 25.25 C-115.78518878 25.22176888 -117.32034718 25.19183181 -118.85546875 25.16015625 C-122.57017005 25.08715032 -126.28474545 25.03706308 -130 25 C-130 24.67 -130 24.34 -130 24 C-129.21761963 23.97494385 -128.43523926 23.9498877 -127.62915039 23.92407227 C-124.10675051 23.80850212 -120.5846444 23.68560051 -117.0625 23.5625 C-115.21495117 23.50352539 -115.21495117 23.50352539 -113.33007812 23.44335938 C-112.16025391 23.40146484 -110.99042969 23.35957031 -109.78515625 23.31640625 C-108.70113525 23.27974854 -107.61711426 23.24309082 -106.50024414 23.20532227 C-104.060737 23.27635735 -104.060737 23.27635735 -103 22 C-104.98 21.67 -106.96 21.34 -109 21 C-109 20.67 -109 20.34 -109 20 C-99.92787362 19.36335955 -91.29072068 21.69525809 -82.79296875 24.80859375 C-80.90377557 25.19573408 -80.90377557 25.19573408 -79.1953125 23.8828125 C-78.51210937 23.30273438 -77.82890625 22.72265625 -77.125 22.125 C-63.39581121 12.03948155 -45.60778312 7.62140032 -29.30712891 3.5859375 C-27.353508 3.08977981 -25.41478497 2.53551968 -23.48046875 1.96875 C-15.56665888 -0.31958056 -8.18326366 -0.30184169 0 0 Z " fill="#141313" transform="translate(1635,77)"/>
<path d="M0 0 C5.69335726 3.60643408 9.97401189 8.44937941 12.125 14.90234375 C12.80187209 23.80581508 12.01427113 30.38714753 6.4375 37.58984375 C1.62121635 42.8310936 -3.25212682 45.09693702 -10.375 45.40234375 C-17.07879741 45.13307765 -21.43597463 42.88759696 -26.5625 38.71484375 C-31.48275954 32.7307443 -34.75883055 27.40209485 -34.2890625 19.453125 C-33.09352538 12.08816522 -30.57198932 6.68362631 -24.65625 2.05859375 C-17.67215063 -2.47494444 -7.8273465 -2.98842985 0 0 Z " fill="#040404" transform="translate(1321.875,156.09765625)"/>
<path d="M0 0 C9.07501779 6.05001186 12.54080477 14.50588707 14.83984375 24.8515625 C-5.29015625 24.8515625 -25.42015625 24.8515625 -46.16015625 24.8515625 C-43.8160868 13.13121523 -40.67220406 6.7009598 -31.22265625 -0.3359375 C-21.27348279 -6.22422383 -10.06524371 -5.35114222 0 0 Z " fill="#F8F8F8" transform="translate(1566.16015625,244.1484375)"/>
<path d="M0 0 C0 0.99 0 1.98 0 3 C0.99 3.495 0.99 3.495 2 4 C-1.96 5.98 -1.96 5.98 -6 8 C-4.68 7.67 -3.36 7.34 -2 7 C-0.58465222 6.93543121 0.83337689 6.91388961 2.25 6.9375 C4.10625 6.9684375 4.10625 6.9684375 6 7 C5.67 7.66 5.34 8.32 5 9 C4.01 9 3.02 9 2 9 C2 9.66 2 10.32 2 11 C-10.48644583 14.97559172 -10.48644583 14.97559172 -15.875 15.9375 C-19.13788136 16.58054961 -21.03903244 17.60499515 -23.625 19.6875 C-26.40798035 21.87917737 -26.75387455 22.00863598 -30.5625 21.875 C-32.2640625 21.441875 -32.2640625 21.441875 -34 21 C-38.58247939 20.08276936 -42.91557523 19.8836623 -47.5859375 19.90234375 C-48.28772125 19.9037587 -48.989505 19.90517365 -49.71255493 19.90663147 C-51.93341504 19.9121871 -54.15417084 19.92473108 -56.375 19.9375 C-57.88932145 19.94252074 -59.4036445 19.94708264 -60.91796875 19.95117188 C-64.61201252 19.96214193 -68.30599606 19.97937551 -72 20 C-72 19.01 -72 18.02 -72 17 C-70.31970703 16.80083984 -70.31970703 16.80083984 -68.60546875 16.59765625 C-67.13279271 16.41943431 -65.66013753 16.24103989 -64.1875 16.0625 C-63.44951172 15.97548828 -62.71152344 15.88847656 -61.95117188 15.79882812 C-58.83266879 15.41783454 -55.98891878 14.99630626 -53 14 C-55.97 13.505 -55.97 13.505 -59 13 C-59 12.67 -59 12.34 -59 12 C-55.7 12 -52.4 12 -49 12 C-49 11.34 -49 10.68 -49 10 C-49.66 9.67 -50.32 9.34 -51 9 C-44.61143801 8.68580843 -39.72474513 9.44208835 -33.67578125 11.5390625 C-27.76379895 12.55747697 -22.50534339 8.79085813 -17.5 6 C-11.76627667 2.80301487 -6.73783824 0 0 0 Z " fill="#10100F" transform="translate(1595,180)"/>
<path d="M0 0 C1.94795707 6.89796053 2.79389922 13.75832615 3.5625 20.875 C3.68818359 21.99519531 3.81386719 23.11539063 3.94335938 24.26953125 C4.67573709 30.8417585 5.35858663 37.41829818 6 44 C4.35 43.34 2.7 42.68 1 42 C0.35180196 37.52117226 -0.29312928 33.04187984 -0.9375 28.5625 C-1.21110352 26.67241211 -1.21110352 26.67241211 -1.49023438 24.74414062 C-2.43421963 18.17057055 -3.31711985 11.60596691 -4 5 C-17.08100947 6.97788459 -29.56430009 9.75280081 -42.25 13.5625 C-43.0234375 13.79453125 -43.796875 14.0265625 -44.59375 14.265625 C-46.34885048 14.80127255 -48.09816167 15.35599746 -49.84375 15.921875 C-58.80455875 18.66792929 -58.80455875 18.66792929 -64 16 C-53.76252767 9.17501844 -41.21741991 6.68323999 -29.46826172 3.65039062 C-27.45005586 3.11859039 -25.44365838 2.54215197 -23.44140625 1.953125 C-15.54101232 -0.31944422 -8.16692604 -0.30123908 0 0 Z " fill="#201F1F" transform="translate(1635,77)"/>
<path d="M0 0 C0.33 0 0.66 0 1 0 C1.12117188 0.95519531 1.24234375 1.91039063 1.3671875 2.89453125 C2.50378768 11.69388202 2.50378768 11.69388202 4 20.4375 C6.03237648 31.17548913 7.12357821 42.1139188 8 53 C7.23558594 53.09796875 6.47117187 53.1959375 5.68359375 53.296875 C-1.7513862 54.3347302 -8.8415627 55.93498154 -16.07421875 57.9296875 C-30.2131203 61.82203562 -44.56009812 64.49361826 -59 67 C-56.59067179 64.18438118 -54.37317481 63.21153706 -50.87890625 62.0625 C-49.85990234 61.72476563 -48.84089844 61.38703125 -47.79101562 61.0390625 C-46.72560547 60.69617188 -45.66019531 60.35328125 -44.5625 60 C-43.53189453 59.65710938 -42.50128906 59.31421875 -41.43945312 58.9609375 C-30.90640883 55.50920816 -20.24511093 52.94503321 -9.375 50.8125 C-8.49199219 50.63525391 -7.60898438 50.45800781 -6.69921875 50.27539062 C-0.26809846 49 -0.26809846 49 2 49 C1.12538456 40.10979128 0.16951722 31.31957334 -1.625 22.5625 C-2.87705787 16.27704368 -3.36578752 10.39450782 -3 4 C-2.01 4 -1.02 4 0 4 C0 2.68 0 1.36 0 0 Z " fill="#EAEAEB" transform="translate(1646,122)"/>
<path d="M0 0 C0.33 0 0.66 0 1 0 C1.99 7.92 2.98 15.84 4 24 C5.91039062 23.67515625 7.82078125 23.3503125 9.7890625 23.015625 C18.15654075 21.82358053 26.41085434 21.69646758 34.85205078 21.73925781 C37.3924903 21.75007447 39.93223671 21.73924752 42.47265625 21.7265625 C44.11458487 21.72788281 45.75651306 21.73044254 47.3984375 21.734375 C48.14443207 21.73032654 48.89042664 21.72627808 49.6590271 21.72210693 C54.73097653 21.7668277 59.11808368 22.61342836 64 24 C64 24.33 64 24.66 64 25 C59.70448372 26.01317245 55.4537916 26.24371566 51.0625 26.4375 C45.86563501 26.69748095 40.82313896 27.11792461 35.6875 28 C23.92831825 29.86036642 11.87950343 29.69615743 0 30 C-1.27550866 24.10807929 -2.2709112 18.39450959 -2.625 12.375 C-2.69976563 11.16585937 -2.77453125 9.95671875 -2.8515625 8.7109375 C-2.90054687 7.81632813 -2.94953125 6.92171875 -3 6 C-2.01 6.495 -2.01 6.495 -1 7 C-0.67 4.69 -0.34 2.38 0 0 Z " fill="#EEEEEE" transform="translate(1480,170)"/>
<path d="M0 0 C-0.33 1.65 -0.66 3.3 -1 5 C-1.69859131 5.1858667 -2.39718262 5.3717334 -3.11694336 5.56323242 C-20.00310573 10.04934147 -20.00310573 10.04934147 -36.8125 14.8125 C-37.47950928 15.00674561 -38.14651855 15.20099121 -38.83374023 15.40112305 C-41.52076537 16.1985108 -44.11448838 17.04821436 -46.69921875 18.13671875 C-49 19 -49 19 -53 19 C-52.67 17.35 -52.34 15.7 -52 14 C-47.50304791 12.48435062 -43.00471142 10.97290451 -38.50512695 9.46508789 C-36.97936305 8.95317827 -35.45396201 8.44018566 -33.92895508 7.92602539 C-8.91595651 -0.50467678 -8.91595651 -0.50467678 0 0 Z " fill="#242320" transform="translate(1629,145)"/>
<path d="M0 0 C2.33612762 0.01854266 4.67186218 0.0205068 7.00805664 0.02026367 C8.5152215 0.02517125 10.02238371 0.03099621 11.52954102 0.0378418 C12.21709976 0.03895462 12.90465851 0.04006744 13.61305237 0.04121399 C17.58705961 0.08010833 21.34385486 0.44748974 25.24438477 1.20581055 C25.24438477 1.86581055 25.24438477 2.52581055 25.24438477 3.20581055 C25.90438477 3.20581055 26.56438477 3.20581055 27.24438477 3.20581055 C27.24438477 3.86581055 27.24438477 4.52581055 27.24438477 5.20581055 C26.65636078 5.21611801 26.06833679 5.22642548 25.4624939 5.23704529 C19.33027701 5.34540887 13.19819821 5.45998163 7.06616211 5.578125 C4.77908219 5.62137832 2.49197198 5.66306002 0.20483398 5.703125 C-3.08676269 5.76106053 -6.37820825 5.82468765 -9.66967773 5.8894043 C-10.68865143 5.90611679 -11.70762512 5.92282928 -12.75747681 5.94004822 C-17.52801253 6.03910614 -22.05947775 6.27480877 -26.75561523 7.20581055 C-29.43371599 7.31777128 -32.0729421 7.25206353 -34.75561523 7.20581055 C-34.42561523 6.54581055 -34.09561523 5.88581055 -33.75561523 5.20581055 C-33.09561523 5.20581055 -32.43561523 5.20581055 -31.75561523 5.20581055 C-31.42561523 4.21581055 -31.09561523 3.22581055 -30.75561523 2.20581055 C-20.43877363 0.52583772 -10.44153509 -0.08575981 0 0 Z " fill="#151414" transform="translate(1518.755615234375,186.794189453125)"/>
<path d="M0 0 C1.65 0 3.3 0 5 0 C7.73675183 6.14945701 8.2594211 12.63330358 9.125 19.25 C9.21471069 19.92041321 9.30442139 20.59082642 9.39685059 21.28155518 C10.76140036 31.57240628 11.54791314 41.6200899 11 52 C8.58665339 50.79332669 7.24482606 49.69933437 6.34179688 47.11987305 C5.81424246 44.75441214 5.38592193 42.3926214 5 40 C4.86851563 39.24541504 4.73703125 38.49083008 4.6015625 37.71337891 C4.21180211 35.41607946 3.85145171 33.11595612 3.5 30.8125 C3.37326904 29.99168945 3.24653809 29.17087891 3.1159668 28.32519531 C2.86128333 26.66773658 2.60824131 25.01002471 2.35693359 23.35205078 C2.03055807 21.20136554 1.6973643 19.05184154 1.36328125 16.90234375 C1.18152344 15.69707031 0.99976563 14.49179688 0.8125 13.25 C0.65394531 12.20328125 0.49539063 11.1565625 0.33203125 10.078125 C-0.03253639 6.69836855 -0.05547502 3.39677814 0 0 Z " fill="#111010" transform="translate(1642,91)"/>
<path d="M0 0 C0.495 1.98 0.495 1.98 1 4 C-4.81819965 6.62937869 -10.66950033 8.51857317 -16.875 10 C-23.72899558 11.63739679 -30.34708556 13.66564406 -37 16 C-39.18567977 16.75528816 -41.37316795 17.50536491 -43.5625 18.25 C-44.53316406 18.58515625 -45.50382812 18.9203125 -46.50390625 19.265625 C-49 20 -49 20 -52 20 C-52.0625 17.75 -52.0625 17.75 -51 15 C-43.6755448 10.08747194 -33.58088186 8.10126465 -25.109375 6.046875 C-20.23489338 4.84705642 -15.49414616 3.27308658 -10.73632812 1.6796875 C-7.04900979 0.48725347 -3.88299292 -0.2865121 0 0 Z " fill="#262524" transform="translate(1624,113)"/>
<path d="M0 0 C0 1.65 0 3.3 0 5 C-0.69222656 5.17015625 -1.38445312 5.3403125 -2.09765625 5.515625 C-17.99670879 9.45373024 -33.55083313 13.92315309 -48.99829102 19.37670898 C-51 20 -51 20 -53 20 C-53 18.35 -53 16.7 -53 15 C-44.29437638 11.49373504 -35.52705991 8.49063226 -26.53149414 5.83251953 C-24.53781312 5.24269648 -22.54716225 4.6433581 -20.55664062 4.04296875 C-7.01693957 0 -7.01693957 0 0 0 Z " fill="#100E0D" transform="translate(1627,129)"/>
<path d="M0 0 C0.84129959 -0.00630432 1.68259918 -0.01260864 2.5493927 -0.019104 C3.90879219 -0.01303131 3.90879219 -0.01303131 5.2956543 -0.00683594 C6.69958687 -0.00970612 6.69958687 -0.00970612 8.13188171 -0.01263428 C10.11315174 -0.01399563 12.0944307 -0.01030268 14.07568359 -0.00195312 C17.09778097 0.00871111 20.11927901 -0.00183153 23.14135742 -0.01464844 C25.06779102 -0.01332613 26.99422425 -0.01076226 28.9206543 -0.00683594 C29.82084793 -0.0108844 30.72104156 -0.01493286 31.64851379 -0.019104 C36.4348591 0.01636405 40.31068941 0.402415 44.80737305 2.25878906 C44.80737305 3.57878906 44.80737305 4.89878906 44.80737305 6.25878906 C43.76508545 6.25355225 42.72279785 6.24831543 41.64892578 6.24291992 C37.70704031 6.22454317 33.76515845 6.21324026 29.82324219 6.20385742 C28.13117838 6.19889066 26.43911871 6.19211499 24.74707031 6.18334961 C14.04943257 6.12940127 3.47193008 6.36982542 -7.19262695 7.25878906 C-7.38012695 4.88378906 -7.38012695 4.88378906 -7.19262695 2.25878906 C-4.11405583 0.20640831 -3.47510369 0.00748113 0 0 Z " fill="#060505" transform="translate(1503.192626953125,162.7412109375)"/>
<path d="M0 0 C0 1.65 0 3.3 0 5 C-0.63687744 5.17015625 -1.27375488 5.3403125 -1.92993164 5.515625 C-16.79499083 9.51402418 -31.36619582 13.99476253 -45.83129883 19.26318359 C-47.8723834 19.95664225 -49.90158742 20.51099732 -52 21 C-52 19.02 -52 17.04 -52 15 C-39.71546938 10.49261186 -27.39246422 6.39255126 -14.75 3 C-13.62609863 2.69763428 -12.50219727 2.39526855 -11.34423828 2.08374023 C-3.41565245 0 -3.41565245 0 0 0 Z " fill="#1D1C1C" transform="translate(1622,97)"/>
<path d="M0 0 C0.9416954 0.00141495 1.88339081 0.0028299 2.85362244 0.00428772 C5.82823007 0.00983503 8.8027593 0.02237738 11.77734375 0.03515625 C13.80794161 0.04017807 15.83854067 0.04473978 17.86914062 0.04882812 C22.81773803 0.05978713 27.76627765 0.07701473 32.71484375 0.09765625 C33.20984375 2.57265625 33.20984375 2.57265625 33.71484375 5.09765625 C16.22484375 5.42765625 -1.26515625 5.75765625 -19.28515625 6.09765625 C-19.28515625 4.44765625 -19.28515625 2.79765625 -19.28515625 1.09765625 C-12.81214968 0.26881314 -6.52145075 -0.03764487 0 0 Z " fill="#060606" transform="translate(1508.28515625,115.90234375)"/>
<path d="M0 0 C0.96672134 0.00141495 1.93344269 0.0028299 2.92945862 0.00428772 C5.99597357 0.00985404 9.06241363 0.02240026 12.12890625 0.03515625 C14.21679582 0.0401756 16.30468653 0.04473775 18.39257812 0.04882812 C23.49221605 0.05981243 28.59179848 0.0770537 33.69140625 0.09765625 C33.69140625 2.07765625 33.69140625 4.05765625 33.69140625 6.09765625 C16.86140625 6.09765625 0.03140625 6.09765625 -17.30859375 6.09765625 C-17.30859375 4.44765625 -17.30859375 2.79765625 -17.30859375 1.09765625 C-11.50205148 0.09341285 -5.88493582 -0.03278988 0 0 Z " fill="#333131" transform="translate(1509.30859375,131.90234375)"/>
<path d="M0 0 C2.475 0.495 2.475 0.495 5 1 C5.11593506 1.82725586 5.23187012 2.65451172 5.35131836 3.50683594 C5.78385956 6.58585488 6.21831348 9.66459621 6.65405273 12.74316406 C6.93425233 14.72700614 7.21225628 16.71115793 7.49023438 18.6953125 C7.75610352 20.57089844 7.75610352 20.57089844 8.02734375 22.484375 C8.18968506 23.63647461 8.35202637 24.78857422 8.51928711 25.97558594 C8.900909 28.37656711 9.39788723 30.65075181 10 33 C10.1394363 34.87166422 10.21965058 36.74839446 10.25 38.625 C10.28867188 40.06746094 10.28867188 40.06746094 10.328125 41.5390625 C10.21984375 42.35117188 10.1115625 43.16328125 10 44 C9.01 44.66 8.02 45.32 7 46 C4.06090581 38.26066602 2.87915506 30.62625656 1.8125 22.4375 C1.63525391 21.16197266 1.45800781 19.88644531 1.27539062 18.57226562 C0.43653986 12.33108642 -0.23030335 6.29760546 0 0 Z " fill="#121212" transform="translate(1637,120)"/>
<path d="M0 0 C0.86825912 0.00222061 1.73651825 0.00444122 2.63108826 0.00672913 C3.61202957 0.00680466 4.59297089 0.00688019 5.6036377 0.00695801 C6.6702916 0.01211929 7.7369455 0.01728058 8.83592224 0.02259827 C9.92211349 0.02401321 11.00830475 0.02542816 12.12741089 0.02688599 C15.61230674 0.03250403 19.09713941 0.04505959 22.58201599 0.05775452 C24.93813486 0.06276719 27.29425473 0.0673305 29.65037537 0.07142639 C35.44011063 0.08247933 41.2298088 0.09923501 47.01951599 0.12025452 C47.51451599 2.59525452 47.51451599 2.59525452 48.01951599 5.12025452 C47.04305115 5.1150177 46.0665863 5.10978088 45.06053162 5.10438538 C41.35530047 5.0859604 37.65007314 5.07468906 33.94480896 5.06532288 C32.35658584 5.06036667 30.76836708 5.05359976 29.18016052 5.04481506 C18.41571128 4.98686838 7.75408729 5.30449332 -2.98048401 6.12025452 C-3.02320501 4.45413547 -3.02112233 2.78642567 -2.98048401 1.12025452 C-1.98048401 0.12025452 -1.98048401 0.12025452 0 0 Z " fill="#0E0E0D" transform="translate(1496.980484008789,147.87974548339844)"/>
<path d="M0 0 C1.13046501 -0.00143509 1.13046501 -0.00143509 2.2837677 -0.00289917 C3.8800159 -0.00357955 5.47626688 -0.00173514 7.07250977 0.00244141 C9.49306623 0.00775441 11.91343397 0.00251103 14.33398438 -0.00390625 C15.88932332 -0.00324472 17.44466215 -0.001962 19 0 C19.71488083 -0.00202423 20.42976166 -0.00404846 21.16630554 -0.00613403 C25.96539232 0.01577593 30.57917278 0.46112231 35.33203125 1.1328125 C33.756444 2.99573141 32.81540532 4.02359174 30.39938354 4.56950378 C29.30425949 4.61280571 29.30425949 4.61280571 28.18701172 4.65698242 C27.3553952 4.69679733 26.52377869 4.73661224 25.66696167 4.77763367 C24.77010651 4.80589737 23.87325134 4.83416107 22.94921875 4.86328125 C21.55595871 4.92350212 21.55595871 4.92350212 20.134552 4.98493958 C17.15908257 5.11009596 14.18326993 5.21522068 11.20703125 5.3203125 C9.22520799 5.40172847 7.24343575 5.48439664 5.26171875 5.56835938 C-3.05383128 5.9087999 -11.34450583 6.17751706 -19.66796875 6.1328125 C-19.33796875 5.4728125 -19.00796875 4.8128125 -18.66796875 4.1328125 C-16.01936448 3.53925636 -13.37599553 3.39071981 -10.66796875 3.1328125 C-10.66796875 2.4728125 -10.66796875 1.8128125 -10.66796875 1.1328125 C-7.05786029 -0.07055699 -3.75724473 -0.01049036 0 0 Z " fill="#0F0E0E" transform="translate(1498.66796875,96.8671875)"/>
<path d="M0 0 C0 0.66 0 1.32 0 2 C-2.64 2.66 -5.28 3.32 -8 4 C-6.68 4.66 -5.36 5.32 -4 6 C-5.98 6.66 -7.96 7.32 -10 8 C-9.99476318 8.65597168 -9.98952637 9.31194336 -9.98413086 9.98779297 C-9.96338728 12.95018563 -9.95034824 15.91256303 -9.9375 18.875 C-9.92912109 19.90753906 -9.92074219 20.94007812 -9.91210938 22.00390625 C-9.90888672 22.99003906 -9.90566406 23.97617188 -9.90234375 24.9921875 C-9.89710693 25.90339355 -9.89187012 26.81459961 -9.88647461 27.75341797 C-10 30 -10 30 -11 32 C-11.66 32 -12.32 32 -13 32 C-18.42694685 9.7592089 -18.42694685 9.7592089 -17 4 C-13.90007858 1.93338572 -12.11052223 1.48645941 -8.5 0.875 C-7.06140625 0.62363281 -7.06140625 0.62363281 -5.59375 0.3671875 C-3 0 -3 0 0 0 Z " fill="#121211" transform="translate(1488,98)"/>
<path d="M0 0 C7.33335292 -0.51462126 13.55557259 1.02058102 20.546875 3.02734375 C23.36186423 3.82025361 26.12521938 4.47880886 29 5 C29.495 6.98 29.495 6.98 30 9 C29.01 9.66 28.02 10.32 27 11 C26.27034634 13.56282742 26.27034634 13.56282742 26 16 C25.67 16 25.34 16 25 16 C24.505 13.03 24.505 13.03 24 10 C14.17005026 5.86733124 5.21954444 5.34788876 -5.25 5.25 C-6.78518878 5.22176888 -8.32034718 5.19183181 -9.85546875 5.16015625 C-13.57017005 5.08715032 -17.28474545 5.03706308 -21 5 C-21 4.67 -21 4.34 -21 4 C-20.21761963 3.97494385 -19.43523926 3.9498877 -18.62915039 3.92407227 C-15.10675051 3.80850212 -11.5846444 3.68560051 -8.0625 3.5625 C-6.83080078 3.52318359 -5.59910156 3.48386719 -4.33007812 3.44335938 C-2.5753418 3.38051758 -2.5753418 3.38051758 -0.78515625 3.31640625 C0.29886475 3.27974854 1.38288574 3.24309082 2.49975586 3.20532227 C4.939263 3.27635735 4.939263 3.27635735 6 2 C3.03 1.505 3.03 1.505 0 1 C0 0.67 0 0.34 0 0 Z " fill="#292928" transform="translate(1526,97)"/>
<path d="M0 0 C0.33 0.66 0.66 1.32 1 2 C1.66 2 2.32 2 3 2 C4.70390967 7.36946326 5.55881927 12.52816422 6.125 18.125 C6.21136719 18.91003906 6.29773437 19.69507813 6.38671875 20.50390625 C6.79565581 24.35310751 7.10899367 28.12293962 7 32 C5.68 31.67 4.36 31.34 3 31 C0.67180056 21.18830238 -1.58449511 11.1312486 -1 1 C-0.67 0.67 -0.34 0.34 0 0 Z " fill="#11100F" transform="translate(1472,163)"/>
<path d="M0 0 C-0.33 0.66 -0.66 1.32 -1 2 C0.010625 1.67 1.02125 1.34 2.0625 1 C5.75479911 -0.07001321 9.15248207 -0.15704155 13 0 C13 0.33 13 0.66 13 1 C11.90328979 1.30236572 11.90328979 1.30236572 10.78442383 1.61083984 C7.45962721 2.52928029 4.13605974 3.45209415 0.8125 4.375 C-0.33798828 4.69210938 -1.48847656 5.00921875 -2.67382812 5.3359375 C-3.78564453 5.6453125 -4.89746094 5.9546875 -6.04296875 6.2734375 C-7.06414795 6.55622559 -8.08532715 6.83901367 -9.13745117 7.13037109 C-11.99466189 7.94385914 -11.99466189 7.94385914 -14.62231445 9.10791016 C-17 10 -17 10 -21 10 C-20.67 8.35 -20.34 6.7 -20 5 C-17.04575985 3.96703956 -14.08605927 2.95073045 -11.125 1.9375 C-10.28324219 1.64294922 -9.44148438 1.34839844 -8.57421875 1.04492188 C-7.76855469 0.77099609 -6.96289062 0.49707031 -6.1328125 0.21484375 C-5.38918457 -0.04176025 -4.64555664 -0.29836426 -3.87939453 -0.56274414 C-2 -1 -2 -1 0 0 Z " fill="#383735" transform="translate(1597,154)"/>
<path d="M0 0 C14.19 0 28.38 0 43 0 C43.495 2.475 43.495 2.475 44 5 C32.78 5 21.56 5 10 5 C10 4.67 10 4.34 10 4 C17.92 3.505 17.92 3.505 26 3 C26 2.34 26 1.68 26 1 C17.42 1 8.84 1 0 1 C0 0.67 0 0.34 0 0 Z " fill="#474747" transform="translate(1498,116)"/>
<path d="M0 0 C0.33 0 0.66 0 1 0 C1 4.29 1 8.58 1 13 C-6.00452877 14.67816835 -12.83072867 16.29713026 -20 17 C-19.67 15.68 -19.34 14.36 -19 13 C-19.66 12.67 -20.32 12.34 -21 12 C-14.85221129 10.3722167 -9.35987804 9.79809911 -3 10 C-1.2175082 6.66688525 -0.51207144 3.75519057 0 0 Z " fill="#1D1C1D" transform="translate(1647,158)"/>
<path d="M0 0 C0.74617584 0.0028299 1.49235168 0.00565979 2.26113892 0.00857544 C4.62478238 0.01969563 6.98803518 0.04478429 9.3515625 0.0703125 C10.96223408 0.08035288 12.57291165 0.08947688 14.18359375 0.09765625 C18.11473194 0.1196081 22.04558117 0.15408065 25.9765625 0.1953125 C25.9765625 1.8453125 25.9765625 3.4953125 25.9765625 5.1953125 C25.3165625 5.1953125 24.6565625 5.1953125 23.9765625 5.1953125 C23.9765625 4.5353125 23.9765625 3.8753125 23.9765625 3.1953125 C11.4365625 3.1953125 -1.1034375 3.1953125 -14.0234375 3.1953125 C-14.0234375 2.8653125 -14.0234375 2.5353125 -14.0234375 2.1953125 C-9.27798511 0.31920341 -5.04136207 -0.07301367 0 0 Z " fill="#030202" transform="translate(1517.0234375,132.8046875)"/>
<path d="M0 0 C0.33 0 0.66 0 1 0 C1.48046411 4.12484994 1.95913156 8.24990654 2.4375 12.375 C2.57220703 13.53128906 2.70691406 14.68757813 2.84570312 15.87890625 C3.62191765 22.58085606 4.35603923 29.2839978 5 36 C3.35 35.34 1.7 34.68 0 34 C-0.33638666 31.41703099 -0.6692165 28.83368737 -1 26.25 C-1.09539062 25.52039063 -1.19078125 24.79078125 -1.2890625 24.0390625 C-1.72021548 20.65143196 -2 17.42145141 -2 14 C-1.34 13.67 -0.68 13.34 0 13 C0 8.71 0 4.42 0 0 Z " fill="#292827" transform="translate(1636,85)"/>
<path d="M0 0 C0.66 0.66 1.32 1.32 2 2 C1.49549316 2.26216309 0.99098633 2.52432617 0.47119141 2.79443359 C-1.81290489 3.98409997 -4.09396567 5.17947397 -6.375 6.375 C-7.1690625 6.7875 -7.963125 7.2 -8.78125 7.625 C-9.54179688 8.02460937 -10.30234375 8.42421875 -11.0859375 8.8359375 C-12.1385376 9.38580322 -12.1385376 9.38580322 -13.21240234 9.94677734 C-16.28252444 11.75564196 -17.5309895 13.85212036 -19 17 C-19 15.35 -19 13.7 -19 12 C-19.99 11.67 -20.98 11.34 -22 11 C-21.34 11 -20.68 11 -20 11 C-19.93554688 10.40574219 -19.87109375 9.81148437 -19.8046875 9.19921875 C-18.66961602 6.09705738 -16.96486377 5.41352465 -14.125 3.8125 C-12.79855469 3.04873047 -12.79855469 3.04873047 -11.4453125 2.26953125 C-7.47746233 0.20954514 -4.44199884 -0.28353184 0 0 Z " fill="#191919" transform="translate(1575,93)"/>
<path d="M0 0 C0 1.65 0 3.3 0 5 C-5.61 6.32 -11.22 7.64 -17 9 C-17 8.34 -17 7.68 -17 7 C-17.99 7.33 -18.98 7.66 -20 8 C-20.99 7.67 -21.98 7.34 -23 7 C-24.33106622 6.65772583 -25.66400079 6.32248257 -27 6 C-24.12605502 5.18360682 -21.2509487 4.37177859 -18.375 3.5625 C-17.56675781 3.33240234 -16.75851562 3.10230469 -15.92578125 2.86523438 C-10.6392941 1.3824392 -5.52897118 0 0 0 Z " fill="#262625" transform="translate(1617,79)"/>
<path d="M0 0 C-0.763125 0.433125 -1.52625 0.86625 -2.3125 1.3125 C-4.94120092 2.78584704 -4.94120092 2.78584704 -6.36254883 4.54614258 C-8.50783306 6.45089397 -10.058314 6.58923996 -12.88671875 6.94921875 C-13.82451172 7.07490234 -14.76230469 7.20058594 -15.72851562 7.33007812 C-17.19321289 7.50700195 -17.19321289 7.50700195 -18.6875 7.6875 C-20.16959961 7.88182617 -20.16959961 7.88182617 -21.68164062 8.08007812 C-24.11986437 8.39810731 -26.55898881 8.70426393 -29 9 C-29 8.34 -29 7.68 -29 7 C-28.01 6.67 -27.02 6.34 -26 6 C-26.66 5.34 -27.32 4.68 -28 4 C-24.08638031 3.13144793 -20.16872948 2.28267221 -16.25 1.4375 C-15.13882812 1.19064453 -14.02765625 0.94378906 -12.8828125 0.68945312 C-11.81289062 0.46064453 -10.74296875 0.23183594 -9.640625 -0.00390625 C-8.65610352 -0.21861572 -7.67158203 -0.4333252 -6.65722656 -0.65454102 C-4.05664939 -0.99263516 -2.45708642 -0.83856995 0 0 Z " fill="#1F1E1D" transform="translate(1626,182)"/>
<path d="M0 0 C1.29099861 0.00022659 1.29099861 0.00022659 2.608078 0.00045776 C3.99571098 0.01594162 3.99571098 0.01594162 5.41137695 0.03173828 C6.36156204 0.03456818 7.31174713 0.03739807 8.29072571 0.04031372 C11.32716435 0.05151363 14.36330863 0.0766179 17.3996582 0.10205078 C19.45759665 0.11208082 21.51553972 0.12120663 23.57348633 0.12939453 C28.6198238 0.15145236 33.66594108 0.18598096 38.7121582 0.22705078 C38.7121582 0.55705078 38.7121582 0.88705078 38.7121582 1.22705078 C37.6926709 1.24687012 36.67318359 1.26668945 35.62280273 1.28710938 C31.84683172 1.36307886 28.07125047 1.45180887 24.2956543 1.54443359 C22.6603158 1.5827593 21.02489197 1.61760585 19.3894043 1.64892578 C17.0409491 1.6944992 14.69308326 1.75250445 12.3449707 1.81298828 C11.24489182 1.83031509 11.24489182 1.83031509 10.12258911 1.84799194 C5.96238715 1.84573175 5.96238715 1.84573175 2.7121582 4.22705078 C4.3621582 4.55705078 6.0121582 4.88705078 7.7121582 5.22705078 C7.7121582 5.55705078 7.7121582 5.88705078 7.7121582 6.22705078 C2.7621582 6.55705078 -2.1878418 6.88705078 -7.2878418 7.22705078 C-7.2878418 5.57705078 -7.2878418 3.92705078 -7.2878418 2.22705078 C-4.17476243 0.15166454 -3.52435985 -0.02067073 0 0 Z " fill="#4C4A49" transform="translate(1503.287841796875,162.77294921875)"/>
<path d="M0 0 C0 1.65 0 3.3 0 5 C-3.12191873 5.86571599 -6.24793306 6.71558604 -9.375 7.5625 C-10.26445313 7.80935547 -11.15390625 8.05621094 -12.0703125 8.31054688 C-12.92109375 8.53935547 -13.771875 8.76816406 -14.6484375 9.00390625 C-15.43395996 9.21861572 -16.21948242 9.4333252 -17.02880859 9.65454102 C-19 10 -19 10 -21 9 C-18.69 8.01 -16.38 7.02 -14 6 C-16.97 6 -19.94 6 -23 6 C-19.50164396 3.66776264 -16.08595267 2.84754451 -12.0625 1.875 C-11.34642578 1.69324219 -10.63035156 1.51148438 -9.89257812 1.32421875 C-6.46464446 0.47914891 -3.55227969 0 0 0 Z " fill="#4A4848" transform="translate(1627,129)"/>
<path d="M0 0 C2.475 0.495 2.475 0.495 5 1 C5.66 6.94 6.32 12.88 7 19 C6.01 19.33 5.02 19.66 4 20 C3.34 20.66 2.68 21.32 2 22 C-0.29612756 7.40318907 -0.29612756 7.40318907 0 0 Z " fill="#121212" transform="translate(1637,120)"/>
<path d="M0 0 C2.12438339 -0.08078641 4.2496323 -0.13909141 6.375 -0.1875 C7.55835938 -0.22230469 8.74171875 -0.25710938 9.9609375 -0.29296875 C11.46527344 -0.14794922 11.46527344 -0.14794922 13 0 C13.66 0.99 14.32 1.98 15 3 C13.71283353 4.00578589 12.42011342 5.00446798 11.125 6 C10.40570312 6.556875 9.68640625 7.11375 8.9453125 7.6875 C7 9 7 9 5 9 C4.67 8.01 4.34 7.02 4 6 C1.99983534 4.79117904 1.99983534 4.79117904 0 4 C0 2.68 0 1.36 0 0 Z " fill="#000137" transform="translate(1579,325)"/>
<path d="M0 0 C0 1.65 0 3.3 0 5 C-8.08412225 7.6840564 -13.78073233 9.13114959 -22 6 C-18.35118324 3.9282933 -14.46766307 2.92431922 -10.4375 1.875 C-9.76525391 1.69324219 -9.09300781 1.51148437 -8.40039062 1.32421875 C-5.51269145 0.56143029 -3.0002579 0 0 0 Z " fill="#252423" transform="translate(1622,97)"/>
<path d="M0 0 C-0.33 0.99 -0.66 1.98 -1 3 C-0.34 3.66 0.32 4.32 1 5 C-4.5626148 7.66038099 -9.93267948 8.96232949 -16 10 C-15.76953125 7.640625 -15.76953125 7.640625 -15 5 C-13.07421875 3.671875 -13.07421875 3.671875 -10.6875 2.75 C-9.51767578 2.27820313 -9.51767578 2.27820313 -8.32421875 1.796875 C-5.52120742 0.83584254 -2.97479754 0 0 0 Z " fill="#262321" transform="translate(1588,123)"/>
<path d="M0 0 C1.09731445 0.00676758 1.09731445 0.00676758 2.21679688 0.01367188 C3.99873419 0.02531852 5.78062863 0.04324809 7.5625 0.0625 C7.8925 1.0525 8.2225 2.0425 8.5625 3.0625 C0.5499678 4.09637512 -7.36655177 4.16716648 -15.4375 4.0625 C-15.4375 3.0725 -15.4375 2.0825 -15.4375 1.0625 C-10.23576905 0.19440561 -5.26771184 -0.06265348 0 0 Z " fill="#070606" transform="translate(1538.4375,195.9375)"/>
<path d="M0 0 C2.53833449 1.26916725 2.89400901 2.41624809 4.125 4.9375 C4.47820312 5.64777344 4.83140625 6.35804688 5.1953125 7.08984375 C6 9 6 9 6 11 C5.31292969 11.04898438 4.62585937 11.09796875 3.91796875 11.1484375 C3.01691406 11.22320312 2.11585937 11.29796875 1.1875 11.375 C0.29417969 11.44460937 -0.59914063 11.51421875 -1.51953125 11.5859375 C-4.24398499 11.86645036 -4.24398499 11.86645036 -7 14 C-5.53967505 8.68972746 -3.01679014 4.53669968 0 0 Z " fill="#101010" transform="translate(1231,135)"/>
<path d="M0 0 C0 0.66 0 1.32 0 2 C-0.66 2 -1.32 2 -2 2 C-1.67 3.32 -1.34 4.64 -1 6 C-2.78910903 6.52955234 -4.58139148 7.0483937 -6.375 7.5625 C-7.87160156 7.99755859 -7.87160156 7.99755859 -9.3984375 8.44140625 C-12 9 -12 9 -14 8 C-14.625 5.9375 -14.625 5.9375 -15 4 C-12.87607494 3.3299166 -10.75082476 2.66403203 -8.625 2 C-7.44164062 1.62875 -6.25828125 1.2575 -5.0390625 0.875 C-2 0 -2 0 0 0 Z " fill="#211F1F" transform="translate(1609,175)"/>
<path d="M0 0 C0.33 1.32 0.66 2.64 1 4 C-0.6210103 4.69685498 -2.24696066 5.38222861 -3.875 6.0625 C-4.77992187 6.44535156 -5.68484375 6.82820313 -6.6171875 7.22265625 C-9 8 -9 8 -11 7 C-11.33 6.34 -11.66 5.68 -12 5 C-16.455 5.495 -16.455 5.495 -21 6 C-17.86369094 3.90912729 -15.21492651 2.9840162 -11.625 1.875 C-10.50351563 1.52179688 -9.38203125 1.16859375 -8.2265625 0.8046875 C-5.31349981 0.07818518 -2.97893589 -0.16735595 0 0 Z " fill="#343433" transform="translate(1624,113)"/>
<path d="M0 0 C1.33333161 0.00503573 2.66666511 0.0095949 4 0.01367188 C7.20838361 0.02529645 10.41666551 0.04163331 13.625 0.0625 C13.625 0.3925 13.625 0.7225 13.625 1.0625 C5.21 1.5575 5.21 1.5575 -3.375 2.0625 C-3.375 2.3925 -3.375 2.7225 -3.375 3.0625 C-12.10130608 3.15994014 -20.70503296 3.22961095 -29.375 2.0625 C-29.375 1.7325 -29.375 1.4025 -29.375 1.0625 C-19.55436395 0.21923725 -9.85755428 -0.06524858 0 0 Z " fill="#C6C6C5" transform="translate(1525.375,151.9375)"/>
<path d="M0 0 C3 -0.3125 3 -0.3125 6 0 C6.66 0.66 7.32 1.32 8 2 C6.68 5.3 5.36 8.6 4 12 C3.34 12 2.68 12 2 12 C1.27494442 10.57086153 0.57041565 9.13129342 -0.125 7.6875 C-0.51945312 6.88699219 -0.91390625 6.08648437 -1.3203125 5.26171875 C-1.54460937 4.51535156 -1.76890625 3.76898438 -2 3 C-1.34 2.01 -0.68 1.02 0 0 Z " fill="#151414" transform="translate(1252,187)"/>
<path d="M0 0 C-0.33 1.65 -0.66 3.3 -1 5 C-6.28 6.32 -11.56 7.64 -17 9 C-17 8.34 -17 7.68 -17 7 C-15.35 7 -13.7 7 -12 7 C-12 6.34 -12 5.68 -12 5 C-10.68 4.67 -9.36 4.34 -8 4 C-10.97 3.505 -10.97 3.505 -14 3 C-10.07503936 -0.92496064 -5.24412188 -0.08740203 0 0 Z " fill="#2A2927" transform="translate(1629,145)"/>
<path d="M0 0 C1.07765625 0.00902344 2.1553125 0.01804687 3.265625 0.02734375 C4.08546875 0.03894531 4.9053125 0.05054687 5.75 0.0625 C5.42 1.7125 5.09 3.3625 4.75 5.0625 C-0.2 5.0625 -5.15 5.0625 -10.25 5.0625 C-10.25 3.7425 -10.25 2.4225 -10.25 1.0625 C-6.78777385 -0.00473961 -3.60960734 -0.03923486 0 0 Z " fill="#0C0C0C" transform="translate(1627.25,77.9375)"/>
<path d="M0 0 C-7.05589744 4.23353847 -13.88424564 5.13371161 -22 6 C-20.3046875 2.1484375 -20.3046875 2.1484375 -17.5625 0.8125 C-11.86554077 -0.48680649 -5.63395276 -1.87798425 0 0 Z " fill="#292726" transform="translate(1614,135)"/>
<path d="M0 0 C5.4389165 -0.21755666 9.87080814 -0.10428384 15 2 C11.39884511 5.46911255 8.48403637 5.35100043 3.609375 5.29296875 C2.90476135 5.28872391 2.20014771 5.28447906 1.47418213 5.28010559 C-0.76760712 5.26336538 -3.00848431 5.22572404 -5.25 5.1875 C-6.77342448 5.17244704 -8.29686311 5.1587597 -9.8203125 5.14648438 C-13.54716941 5.11347791 -17.27349563 5.06172854 -21 5 C-21 4.67 -21 4.34 -21 4 C-20.21761963 3.97494385 -19.43523926 3.9498877 -18.62915039 3.92407227 C-15.10675051 3.80850212 -11.5846444 3.68560051 -8.0625 3.5625 C-6.83080078 3.52318359 -5.59910156 3.48386719 -4.33007812 3.44335938 C-2.5753418 3.38051758 -2.5753418 3.38051758 -0.78515625 3.31640625 C0.29886475 3.27974854 1.38288574 3.24309082 2.49975586 3.20532227 C4.939263 3.27635735 4.939263 3.27635735 6 2 C3.03 1.505 3.03 1.505 0 1 C0 0.67 0 0.34 0 0 Z " fill="#343434" transform="translate(1526,97)"/>
<path d="M0 0 C4.29 0 8.58 0 13 0 C13.33 1.65 13.66 3.3 14 5 C8.72 4.67 3.44 4.34 -2 4 C-1.34 3.67 -0.68 3.34 0 3 C0 2.01 0 1.02 0 0 Z " fill="#0B0A09" transform="translate(1534,164)"/>
<path d="M0 0 C2 0 4 0 6 0 C6.33 2.64 6.66 5.28 7 8 C3.52674819 9.1577506 0.63932552 9.06866652 -3 9 C-2.01 6.03 -1.02 3.06 0 0 Z " fill="#1A1613" transform="translate(1495,249)"/>
<path d="M0 0 C0 0.33 0 0.66 0 1 C-2.31 1 -4.62 1 -7 1 C-7 1.99 -7 2.98 -7 4 C-3.04 4 0.92 4 5 4 C5 4.33 5 4.66 5 5 C-2.92 5.33 -10.84 5.66 -19 6 C-19 5.67 -19 5.34 -19 5 C-17.35 5 -15.7 5 -14 5 C-14 3.68 -14 2.36 -14 1 C-9.23692563 0.04738513 -4.8333472 -0.08333357 0 0 Z " fill="#353333" transform="translate(1530,196)"/>
<path d="M0 0 C0.33 0 0.66 0 1 0 C1 4.29 1 8.58 1 13 C-7.75 15.125 -7.75 15.125 -10 14 C-8.68 13.34 -7.36 12.68 -6 12 C-8.97 11.505 -8.97 11.505 -12 11 C-12 10.67 -12 10.34 -12 10 C-9.03 10 -6.06 10 -3 10 C-1.19669467 6.39338934 -0.53400897 3.91606575 0 0 Z " fill="#2C2B2B" transform="translate(1647,158)"/>
<path d="M0 0 C1.12588014 0.95729916 2.2506715 1.91587895 3.375 2.875 C4.00148438 3.40867188 4.62796875 3.94234375 5.2734375 4.4921875 C6.55836651 5.61432007 7.79371975 6.79371975 9 8 C5.37 8.33 1.74 8.66 -2 9 C-3 5 -3 5 -1.5625 2.25 C-1.046875 1.5075 -0.53125 0.765 0 0 Z " fill="#1B100B" transform="translate(1587,227)"/>
<path d="M0 0 C1.32 0.33 2.64 0.66 4 1 C5.88698167 5.05701058 6.21117043 8.56542098 6 13 C3.525 12.01 3.525 12.01 1 11 C0.67 7.37 0.34 3.74 0 0 Z " fill="#393837" transform="translate(1635,108)"/>
<path d="M0 0 C0.86625 0.268125 1.7325 0.53625 2.625 0.8125 C1.1222742 5.02013224 -1.60832995 6.6152758 -5.375 8.8125 C-6.035 8.8125 -6.695 8.8125 -7.375 8.8125 C-7.375 7.8225 -7.375 6.8325 -7.375 5.8125 C-8.035 5.4825 -8.695 5.1525 -9.375 4.8125 C-4.20576923 -0.23365385 -4.20576923 -0.23365385 0 0 Z " fill="#07091D" transform="translate(1394.375,223.1875)"/>
<path d="M0 0 C0 3.38023517 -0.87455622 5.83468937 -2 9 C-2.33 8.34 -2.66 7.68 -3 7 C-5.31 7 -7.62 7 -10 7 C-9.34 5.02 -8.68 3.04 -8 1 C-7.05125 1.020625 -6.1025 1.04125 -5.125 1.0625 C-2.09333717 1.22551826 -2.09333717 1.22551826 0 0 Z " fill="#21201F" transform="translate(368,324)"/>
<path d="M0 0 C0 0.66 0 1.32 0 2 C-2.64 2.66 -5.28 3.32 -8 4 C-6.68 4.66 -5.36 5.32 -4 6 C-4.94875 6.2475 -5.8975 6.495 -6.875 6.75 C-10.08693191 7.6857077 -10.08693191 7.6857077 -11.375 10.125 C-11.58125 10.74375 -11.7875 11.3625 -12 12 C-11.93489583 9.98177083 -11.86979167 7.96354167 -11.8046875 5.9453125 C-11.81668311 3.76136355 -11.81668311 3.76136355 -14 2 C-12.22978678 1.663389 -10.45880326 1.33082707 -8.6875 1 C-7.70136719 0.814375 -6.71523437 0.62875 -5.69921875 0.4375 C-3 0 -3 0 0 0 Z " fill="#3C3B3B" transform="translate(1488,98)"/>
<path d="M0 0 C0 0.66 0 1.32 0 2 C-4.62197306 4.21854707 -7.76824163 5.38281159 -13 5 C-13 3.68 -13 2.36 -13 1 C-8.20862412 -0.6290678 -4.94367454 -1.20577428 0 0 Z " fill="#151514" transform="translate(1600,86)"/>
<path d="M0 0 C0 0.33 0 0.66 0 1 C-1.98 1 -3.96 1 -6 1 C-6 1.66 -6 2.32 -6 3 C-4.68 3.66 -3.36 4.32 -2 5 C-6.76307437 5.95261487 -11.1666528 6.08333357 -16 6 C-15.67 5.34 -15.34 4.68 -15 4 C-14.34 4 -13.68 4 -13 4 C-12.67 3.01 -12.34 2.02 -12 1 C-8.32433144 -0.61729417 -3.92760325 -0.06546005 0 0 Z " fill="#2D2C2B" transform="translate(1500,188)"/>
<path d="M0 0 C0 0.99 0 1.98 0 3 C-4.1196377 4.29243536 -7.66831683 5.26252625 -12 5 C-12 3.68 -12 2.36 -12 1 C-10.56496445 0.63597631 -9.12683494 0.28413409 -7.6875 -0.0625 C-6.88699219 -0.25972656 -6.08648438 -0.45695312 -5.26171875 -0.66015625 C-3 -1 -3 -1 0 0 Z " fill="#0E0E0D" transform="translate(1613,118)"/>
<path d="M0 0 C1.98 0 3.96 0 6 0 C6 3 6 3 4.8125 5.1875 C3 7 3 7 0.3125 7.25 C-0.450625 7.1675 -1.21375 7.085 -2 7 C-2.66 5.68 -3.32 4.36 -4 3 C-2.68 3 -1.36 3 0 3 C0 2.01 0 1.02 0 0 Z " fill="#1C1511" transform="translate(1385,250)"/>
<path d="M0 0 C0 0.66 0 1.32 0 2 C3.3 1.67 6.6 1.34 10 1 C6.98509443 3.00993705 4.7850073 3.72623341 1.3125 4.625 C0.31863281 4.88539063 -0.67523437 5.14578125 -1.69921875 5.4140625 C-2.45847656 5.60742188 -3.21773437 5.80078125 -4 6 C-4 5.34 -4 4.68 -4 4 C-6.64 4 -9.28 4 -12 4 C-8.36043372 1.57362248 -4.44144233 0 0 0 Z " fill="#2E2C2A" transform="translate(1593,138)"/>
<path d="M0 0 C0.33 0 0.66 0 1 0 C1.33 4.95 1.66 9.9 2 15 C0.68 15 -0.64 15 -2 15 C-2 13.68 -2 12.36 -2 11 C-2.99 10.67 -3.98 10.34 -5 10 C-3.625 8.5 -3.625 8.5 -2 7 C-1.34 7 -0.68 7 0 7 C0 4.69 0 2.38 0 0 Z " fill="#DFDEDE" transform="translate(1636,119)"/>
<path d="M0 0 C-0.33 0.66 -0.66 1.32 -1 2 C-2.32 2 -3.64 2 -5 2 C-5 2.66 -5 3.32 -5 4 C-8.63 4.33 -12.26 4.66 -16 5 C-14.6490841 2.2981682 -12.76408314 1.71626566 -10.0546875 0.59765625 C-6.64814487 -0.39322022 -3.52737691 -0.18565142 0 0 Z " fill="#040403" transform="translate(1622,148)"/>
<path d="M0 0 C-0.33 0.99 -0.66 1.98 -1 3 C-0.34 3.66 0.32 4.32 1 5 C-3.455 6.485 -3.455 6.485 -8 8 C-8.33 6.02 -8.66 4.04 -9 2 C-2.25 0 -2.25 0 0 0 Z " fill="#393735" transform="translate(1588,123)"/>
<path d="M0 0 C2.97 0 5.94 0 9 0 C7 2 7 2 4 3 C4 4.98 4 6.96 4 9 C4.99 8.67 5.98 8.34 7 8 C7 8.66 7 9.32 7 10 C5.02 10 3.04 10 1 10 C0.67 6.7 0.34 3.4 0 0 Z " fill="#F0EBE8" transform="translate(1560,132)"/>
<path d="M0 0 C0.33 0.99 0.66 1.98 1 3 C-2.80955639 4.90477819 -6.40716321 4.17565535 -10.375 3 C-11.24125 2.67 -12.1075 2.34 -13 2 C-8.25713263 -0.5408218 -5.30009266 -1.32502317 0 0 Z " fill="#31302F" transform="translate(1613,101)"/>
<path d="M0 0 C4.95 0 9.9 0 15 0 C12 3 12 3 9.30078125 3.29296875 C8.31464844 3.25816406 7.32851562 3.22335938 6.3125 3.1875 C5.31863281 3.16042969 4.32476563 3.13335937 3.30078125 3.10546875 C2.54152344 3.07066406 1.78226563 3.03585938 1 3 C0.67 2.01 0.34 1.02 0 0 Z " fill="#070707" transform="translate(1519,98)"/>
<path d="M0 0 C-0.33 0.66 -0.66 1.32 -1 2 C-1.99 2 -2.98 2 -4 2 C-4 2.66 -4 3.32 -4 4 C-6.95664519 5.4783226 -9.74229737 5.06032783 -13 5 C-12.67 4.34 -12.34 3.68 -12 3 C-11.34 3 -10.68 3 -10 3 C-10 2.34 -10 1.68 -10 1 C-6.78548731 -0.60725635 -3.56387464 -0.05748185 0 0 Z " fill="#080807" transform="translate(1601,187)"/>
<path d="M0 0 C2.625 -0.1875 2.625 -0.1875 5 0 C4.67 0.66 4.34 1.32 4 2 C4.99 2.33 5.98 2.66 7 3 C6.67 3.99 6.34 4.98 6 6 C3.69 6 1.38 6 -1 6 C-1.33 5.01 -1.66 4.02 -2 3 C-1.34 2.01 -0.68 1.02 0 0 Z " fill="#200D0D" transform="translate(1579,254)"/>
<path d="M0 0 C0.33 0 0.66 0 1 0 C1 3.3 1 6.6 1 10 C-1.31 10.33 -3.62 10.66 -6 11 C-6.33 9.68 -6.66 8.36 -7 7 C-4.69 7 -2.38 7 0 7 C0 4.69 0 2.38 0 0 Z " fill="#D9D8D7" transform="translate(1557,150)"/>
<path d="M0 0 C0.33 0 0.66 0 1 0 C1.33 4.29 1.66 8.58 2 13 C1.67 12.01 1.34 11.02 1 10 C0.34 10 -0.32 10 -1 10 C-1.33 11.65 -1.66 13.3 -2 15 C-2.33 15 -2.66 15 -3 15 C-3 11.37 -3 7.74 -3 4 C-2.01 4 -1.02 4 0 4 C0 2.68 0 1.36 0 0 Z " fill="#D5D4D5" transform="translate(1646,122)"/>
<path d="M0 0 C5.61 0 11.22 0 17 0 C17.33 1.65 17.66 3.3 18 5 C16.02 5 14.04 5 12 5 C12.66 4.67 13.32 4.34 14 4 C14 3.01 14 2.02 14 1 C9.38 1 4.76 1 0 1 C0 0.67 0 0.34 0 0 Z " fill="#262524" transform="translate(1527,148)"/>
<path d="M0 0 C0.33 0 0.66 0 1 0 C1.33 4.29 1.66 8.58 2 13 C1.34 12.34 0.68 11.68 0 11 C-0.33 13.97 -0.66 16.94 -1 20 C-1.33 20 -1.66 20 -2 20 C-2.33 15.38 -2.66 10.76 -3 6 C-2.01 6.495 -2.01 6.495 -1 7 C-0.67 4.69 -0.34 2.38 0 0 Z " fill="#C1C1C2" transform="translate(1480,170)"/>
<path d="M0 0 C-0.99 1.485 -0.99 1.485 -2 3 C-5.2578125 3.29296875 -5.2578125 3.29296875 -9.125 3.1875 C-11.04699219 3.14689453 -11.04699219 3.14689453 -13.0078125 3.10546875 C-13.99523438 3.07066406 -14.98265625 3.03585938 -16 3 C-16 2.67 -16 2.34 -16 2 C-10.60539047 -0.27141454 -5.73842251 -0.20413361 0 0 Z " fill="#0A0909" transform="translate(1519,133)"/>
<path d="M0 0 C2.31 0 4.62 0 7 0 C6.34 1.98 5.68 3.96 5 6 C2.525 5.01 2.525 5.01 0 4 C0 2.68 0 1.36 0 0 Z " fill="#150200" transform="translate(1352,189)"/>
<path d="M0 0 C0.66 0.66 1.32 1.32 2 2 C0.71283353 3.00578589 -0.57988658 4.00446798 -1.875 5 C-2.95394531 5.8353125 -2.95394531 5.8353125 -4.0546875 6.6875 C-6 8 -6 8 -8 8 C-8.33 6.68 -8.66 5.36 -9 4 C-7.68 4 -6.36 4 -5 4 C-5 3.34 -5 2.68 -5 2 C-3.35 2 -1.7 2 0 2 C0 1.34 0 0.68 0 0 Z " fill="#131420" transform="translate(1592,326)"/>
<path d="M0 0 C2.31 0 4.62 0 7 0 C7.33 1.65 7.66 3.3 8 5 C5.36 4.67 2.72 4.34 0 4 C0 2.68 0 1.36 0 0 Z " fill="#232321" transform="translate(1540,164)"/>
<path d="M0 0 C2.97 0 5.94 0 9 0 C8.67 0.99 8.34 1.98 8 3 C5.36 3.33 2.72 3.66 0 4 C0 2.68 0 1.36 0 0 Z " fill="#170B0C" transform="translate(1152,243)"/>
<path d="M0 0 C2.97 0.33 5.94 0.66 9 1 C8.67 1.99 8.34 2.98 8 4 C5.36 4.33 2.72 4.66 0 5 C0 3.35 0 1.7 0 0 Z " fill="#100F0F" transform="translate(1351,166)"/>
<path d="M0 0 C-5.40350877 4.05263158 -5.40350877 4.05263158 -8.125 3.8125 C-8.74375 3.544375 -9.3625 3.27625 -10 3 C-11.33009698 2.65397846 -12.66315468 2.31895687 -14 2 C-12.42085985 1.46658816 -10.83645613 0.94874237 -9.25 0.4375 C-8.36828125 0.14746094 -7.4865625 -0.14257812 -6.578125 -0.44140625 C-3.92165684 -1.01697435 -2.52968894 -0.89248371 0 0 Z " fill="#383837" transform="translate(1604,83)"/>
<path d="M0 0 C2.97 0 5.94 0 9 0 C8.67 0.99 8.34 1.98 8 3 C4.7 3.33 1.4 3.66 -2 4 C-1.34 3.67 -0.68 3.34 0 3 C0 2.01 0 1.02 0 0 Z " fill="#262525" transform="translate(1617,130)"/>
<path d="M0 0 C0.99 0 1.98 0 3 0 C3 2.97 3 5.94 3 9 C2.01 9 1.02 9 0 9 C0 6.03 0 3.06 0 0 Z " fill="#240606" transform="translate(1491,273)"/>
<path d="M0 0 C-3.20336822 2.83374881 -5.78087253 3.5205537 -10 4 C-10 3.01 -10 2.02 -10 1 C-6.21812119 -0.83691257 -4.05431692 -1.15837626 0 0 Z " fill="#10100E" transform="translate(1587,160)"/>
<path d="M0 0 C0.66 0.33 1.32 0.66 2 1 C1.01 2.485 1.01 2.485 0 4 C0.33 4.66 0.66 5.32 1 6 C-0.98 6.33 -2.96 6.66 -5 7 C-5 5.35 -5 3.7 -5 2 C-2.625 0.9375 -2.625 0.9375 0 0 Z " fill="#353230" transform="translate(1579,142)"/>
<path d="M0 0 C0 0.66 0 1.32 0 2 C-0.66 2 -1.32 2 -2 2 C-2.33 2.66 -2.66 3.32 -3 4 C-6.3 4 -9.6 4 -13 4 C-8.68630028 1.12420019 -5.19265239 0 0 0 Z " fill="#444240" transform="translate(1617,131)"/>
<path d="M0 0 C0.33 0 0.66 0 1 0 C1 3.3 1 6.6 1 10 C0.01 10 -0.98 10 -2 10 C-2.25 3.375 -2.25 3.375 0 0 Z " fill="#140A07" transform="translate(1476,274)"/>
<path d="M0 0 C0 0.66 0 1.32 0 2 C-3.96 2.66 -7.92 3.32 -12 4 C-11.67 3.01 -11.34 2.02 -11 1 C-7.26562152 0.12132271 -3.83225427 -0.08912219 0 0 Z " fill="#070605" transform="translate(1604,137)"/>
<path d="M0 0 C0.7425 0.0825 1.485 0.165 2.25 0.25 C2.58 1.57 2.91 2.89 3.25 4.25 C-0.05 4.25 -3.35 4.25 -6.75 4.25 C-3.42692308 0.31153846 -3.42692308 0.31153846 0 0 Z " fill="#1F1E1D" transform="translate(1590.75,122.75)"/>
<path d="M0 0 C2.0625 0.4375 2.0625 0.4375 4 1 C3.67 2.98 3.34 4.96 3 7 C2.34 7 1.68 7 1 7 C0.34 5.02 -0.32 3.04 -1 1 C-0.67 0.67 -0.34 0.34 0 0 Z " fill="#0C0B0B" transform="translate(1253,192)"/>
<path d="M0 0 C2.64 0 5.28 0 8 0 C7.67 1.65 7.34 3.3 7 5 C6.01 5 5.02 5 4 5 C3.67 4.01 3.34 3.02 3 2 C2.01 1.34 1.02 0.68 0 0 Z " fill="#383836" transform="translate(1621,145)"/>
<path d="M0 0 C0.66 0.99 1.32 1.98 2 3 C1.67 3.66 1.34 4.32 1 5 C-2.4375 5.75 -2.4375 5.75 -6 6 C-6.66 5.34 -7.32 4.68 -8 4 C-5.36 2.68 -2.72 1.36 0 0 Z " fill="#1E222A" transform="translate(1432,309)"/>
<path d="M0 0 C1.32 0.33 2.64 0.66 4 1 C4 2.32 4 3.64 4 5 C1.03 4.505 1.03 4.505 -2 4 C-1.34 2.68 -0.68 1.36 0 0 Z " fill="#120000" transform="translate(724,241)"/>
<path d="M0 0 C0.66 0.99 1.32 1.98 2 3 C1.67 3.66 1.34 4.32 1 5 C-1.31 5 -3.62 5 -6 5 C-6.33 4.34 -6.66 3.68 -7 3 C-3.535 2.505 -3.535 2.505 0 2 C0 1.34 0 0.68 0 0 Z " fill="#181811" transform="translate(460,220)"/>
<path d="M0 0 C2.475 0.495 2.475 0.495 5 1 C4.67 3.97 4.34 6.94 4 10 C1.81024227 6.71536341 1.00193437 3.79303725 0 0 Z " fill="#1D0E0E" transform="translate(417,212)"/>
<path d="M0 0 C-0.33 0.99 -0.66 1.98 -1 3 C-2.98 3 -4.96 3 -7 3 C-7 2.01 -7 1.02 -7 0 C-3.86650268 -1.04449911 -3.01031744 -0.93423645 0 0 Z " fill="#171716" transform="translate(1545,100)"/>
<path d="M0 0 C0.763125 0.20625 1.52625 0.4125 2.3125 0.625 C1.3225 2.11 1.3225 2.11 0.3125 3.625 C-2.8125 3.8125 -2.8125 3.8125 -5.6875 3.625 C-5.6875 2.965 -5.6875 2.305 -5.6875 1.625 C-2.6875 -0.375 -2.6875 -0.375 0 0 Z " fill="#1C1C1C" transform="translate(1036.6875,169.375)"/>
<path d="M0 0 C1.65 0 3.3 0 5 0 C5.33 0.99 5.66 1.98 6 3 C2.37 3 -1.26 3 -5 3 C-5 2.67 -5 2.34 -5 2 C-3.35 2 -1.7 2 0 2 C0 1.34 0 0.68 0 0 Z " fill="#E0DFDF" transform="translate(1548,167)"/>
<path d="M0 0 C0.99 0.33 1.98 0.66 3 1 C3.33 2.65 3.66 4.3 4 6 C3.01 6 2.02 6 1 6 C0.67 7.32 0.34 8.64 0 10 C0 6.7 0 3.4 0 0 Z " fill="#F0F0F0" transform="translate(1644,131)"/>
<path d="M0 0 C1.23556641 0.01740234 1.23556641 0.01740234 2.49609375 0.03515625 C3.32238281 0.04417969 4.14867187 0.05320313 5 0.0625 C5.63808594 0.07410156 6.27617188 0.08570313 6.93359375 0.09765625 C4.61502458 1.64336903 2.42720946 2.89384177 -0.06640625 4.09765625 C-1.05640625 3.10765625 -2.04640625 2.11765625 -3.06640625 1.09765625 C-2.06640625 0.09765625 -2.06640625 0.09765625 0 0 Z " fill="#161412" transform="translate(1248.06640625,245.90234375)"/>
<path d="M0 0 C0.33 1.32 0.66 2.64 1 4 C-1.475 5.485 -1.475 5.485 -4 7 C-4.66 6.34 -5.32 5.68 -6 5 C-4.02 3.35 -2.04 1.7 0 0 Z " fill="#181A21" transform="translate(1391,223)"/>
<path d="M0 0 C-0.99 0 -1.98 0 -3 0 C-3 1.32 -3 2.64 -3 4 C-3.99 4 -4.98 4 -6 4 C-6 3.34 -6 2.68 -6 2 C-6.99 1.67 -7.98 1.34 -9 1 C-5.57367167 -0.61798838 -3.61944899 -1.34053666 0 0 Z " fill="#2B2A2A" transform="translate(1590,87)"/>
<path d="M0 0 C0.66 0 1.32 0 2 0 C2 2.31 2 4.62 2 7 C1.01 7.495 1.01 7.495 0 8 C-0.38063221 5.6739143 -0.71269945 3.33944736 -1 1 C-0.67 0.67 -0.34 0.34 0 0 Z " fill="#050605" transform="translate(1641,139)"/>
<path d="M0 0 C1.2065625 0.0309375 1.2065625 0.0309375 2.4375 0.0625 C2.7675 1.3825 3.0975 2.7025 3.4375 4.0625 C-0.07966303 4.0625 -0.93371748 3.23804415 -3.5625 1.0625 C-2.5625 0.0625 -2.5625 0.0625 0 0 Z " fill="#221816" transform="translate(1429.5625,242.9375)"/>
<path d="M0 0 C0 0.33 0 0.66 0 1 C-1.98 1 -3.96 1 -6 1 C-6 1.66 -6 2.32 -6 3 C-8.97 2.505 -8.97 2.505 -12 2 C-8.09971775 -0.60018816 -4.52565431 -0.15085514 0 0 Z " fill="#4C4A47" transform="translate(1500,188)"/>
<path d="M0 0 C-3.625 3 -3.625 3 -7 3 C-7.33 3.99 -7.66 4.98 -8 6 C-7.8125 3.625 -7.8125 3.625 -7 1 C-2.77108434 -1.38554217 -2.77108434 -1.38554217 0 0 Z " fill="#2B2825" transform="translate(1584,158)"/>
<path d="M0 0 C2.475 0.495 2.475 0.495 5 1 C5 1.66 5 2.32 5 3 C4.01 3.33 3.02 3.66 2 4 C1.34 4.66 0.68 5.32 0 6 C0 4.02 0 2.04 0 0 Z " fill="#343332" transform="translate(1639,136)"/>
<path d="M0 0 C0.33 0.99 0.66 1.98 1 3 C-0.32 3.99 -1.64 4.98 -3 6 C-3.33 4.68 -3.66 3.36 -4 2 C-2.68 1.34 -1.36 0.68 0 0 Z " fill="#1B1C1F" transform="translate(1462,322)"/>
<path d="M0 0 C-1.39332574 3.36720387 -2.9789286 4.9859524 -6 7 C-5.37162381 3.35541809 -4.14650034 0 0 0 Z " fill="#222123" transform="translate(895,320)"/>
<path d="M0 0 C3.1875 0.3125 3.1875 0.3125 6 1 C6 1.66 6 2.32 6 3 C3.03 3 0.06 3 -3 3 C-2.01 2.01 -1.02 1.02 0 0 Z " fill="#515150" transform="translate(1542,193)"/>
<path d="M0 0 C0.66 1.32 1.32 2.64 2 4 C1.02149805 5.02104551 0.02019573 6.0206121 -1 7 C-1.33 7 -1.66 7 -2 7 C-2.125 4.625 -2.125 4.625 -2 2 C-1.34 1.34 -0.68 0.68 0 0 Z " fill="#090909" transform="translate(1486,186)"/>
<path d="M0 0 C0 0.66 0 1.32 0 2 C-0.66 2 -1.32 2 -2 2 C-1.67 3.32 -1.34 4.64 -1 6 C-1.99 5.67 -2.98 5.34 -4 5 C-4 4.34 -4 3.68 -4 3 C-4.99 2.34 -5.98 1.68 -7 1 C-2.25 0 -2.25 0 0 0 Z " fill="#2E2C2B" transform="translate(1609,175)"/>
<path d="M0 0 C-0.99 1.485 -0.99 1.485 -2 3 C-5.625 3.1875 -5.625 3.1875 -9 3 C-6.40821726 0.40821726 -3.54324677 -1.77162338 0 0 Z " fill="#272727" transform="translate(968,169)"/>
<path d="M0 0 C-2.5654594 2.5654594 -4.47686668 2.54046087 -8 3 C-8 2.34 -8 1.68 -8 1 C-3.375 -1.125 -3.375 -1.125 0 0 Z " fill="#0F0D0C" transform="translate(1595,156)"/>
</svg>
